<svg xmlns="http://www.w3.org/2000/svg" width="960" height="1708" viewBox="0 0 480 854"><defs><linearGradient id="sky" x1="0" y1="0" x2="0" y2="1"><stop offset="0" stop-color="#4C86BE"/><stop offset="0.4" stop-color="#82B4DC"/><stop offset="0.74" stop-color="#C0DCF0"/><stop offset="1" stop-color="#E8F4FC"/></linearGradient><linearGradient id="hillfar" x1="0" y1="0" x2="0" y2="1"><stop offset="0" stop-color="#8FAAC2"/><stop offset="1" stop-color="#6E8AA4"/></linearGradient><linearGradient id="hazeA" x1="0" y1="0" x2="0" y2="1"><stop offset="0" stop-color="#B8D0E4"/><stop offset="1" stop-color="#94B4CE"/></linearGradient><linearGradient id="hazeB" x1="0" y1="0" x2="0" y2="1"><stop offset="0" stop-color="#D2E6F4"/><stop offset="1" stop-color="#AECAE0"/></linearGradient><linearGradient id="groundA" x1="0" y1="0" x2="0" y2="1"><stop offset="0" stop-color="#D6E8F4"/><stop offset="1" stop-color="#B4CEE2"/></linearGradient><linearGradient id="groundB" x1="0" y1="0" x2="0" y2="1"><stop offset="0" stop-color="#FFFFFF"/><stop offset="1" stop-color="#DCEBF6"/></linearGradient><linearGradient id="leaf" x1="0" y1="0" x2="0" y2="1"><stop offset="0" stop-color="#2A5C3C"/><stop offset="1" stop-color="#1A3E28"/></linearGradient><linearGradient id="leafhi" x1="0" y1="0" x2="0" y2="1"><stop offset="0" stop-color="#FFFFFF"/><stop offset="1" stop-color="#DCEFF0"/></linearGradient><linearGradient id="chuteA" x1="0" y1="0" x2="0" y2="1"><stop offset="0" stop-color="#BCD8EC"/><stop offset="1" stop-color="#8EB2CE"/></linearGradient><radialGradient id="sundisc" cx="0.5" cy="0.5" r="0.5"><stop offset="0" stop-color="#FFFBE0"/><stop offset="0.6" stop-color="#FFEEA8"/><stop offset="1" stop-color="#FFD98A"/></radialGradient><radialGradient id="sunglow" cx="0.5" cy="0.5" r="0.5"><stop offset="0" stop-color="#FFE9A8" stop-opacity="0.85"/><stop offset="0.5" stop-color="#FFE9A8" stop-opacity="0.35"/><stop offset="1" stop-color="#FFE9A8" stop-opacity="0.0"/></radialGradient><linearGradient id="ray" x1="0" y1="0" x2="0" y2="1"><stop offset="0" stop-color="#FFF6CE" stop-opacity="0.5"/><stop offset="1" stop-color="#FFF6CE" stop-opacity="0.0"/></linearGradient><linearGradient id="rock" x1="0" y1="0" x2="0" y2="1"><stop offset="0" stop-color="#C9AE86"/><stop offset="1" stop-color="#8A6B4A"/></linearGradient><linearGradient id="rockdark" x1="0" y1="0" x2="0" y2="1"><stop offset="0" stop-color="#8A7256"/><stop offset="1" stop-color="#4E3E2C"/></linearGradient><linearGradient id="cliffA" x1="0" y1="0" x2="0" y2="1"><stop offset="0" stop-color="#B49470"/><stop offset="1" stop-color="#7E6448"/></linearGradient><linearGradient id="cliffB" x1="0" y1="0" x2="0" y2="1"><stop offset="0" stop-color="#8E7454"/><stop offset="1" stop-color="#5E4A32"/></linearGradient><linearGradient id="peakA" x1="0" y1="0" x2="0" y2="1"><stop offset="0" stop-color="#CFE0EC"/><stop offset="1" stop-color="#8FB0C8"/></linearGradient><linearGradient id="water" x1="0" y1="0" x2="0" y2="1"><stop offset="0" stop-color="#EAFBFF"/><stop offset="0.35" stop-color="#9FE6F2"/><stop offset="1" stop-color="#37AED2"/></linearGradient><linearGradient id="volc" x1="0" y1="0" x2="0" y2="1"><stop offset="0" stop-color="#6E3A2A"/><stop offset="1" stop-color="#2E1812"/></linearGradient><radialGradient id="lavaglow" cx="0.5" cy="0.5" r="0.5"><stop offset="0" stop-color="#FF8A3D" stop-opacity="0.75"/><stop offset="1" stop-color="#FF8A3D" stop-opacity="0.0"/></radialGradient><linearGradient id="lava" x1="0" y1="0" x2="0" y2="1"><stop offset="0" stop-color="#FFD24A"/><stop offset="1" stop-color="#FF5A2D"/></linearGradient><linearGradient id="mudA" x1="0" y1="0" x2="0" y2="1"><stop offset="0" stop-color="#8A5E34"/><stop offset="1" stop-color="#5E3C1E"/></linearGradient><linearGradient id="mudB" x1="0" y1="0" x2="0" y2="1"><stop offset="0" stop-color="#6E4826"/><stop offset="1" stop-color="#432B12"/></linearGradient><linearGradient id="sandwall" x1="0" y1="0" x2="0" y2="1"><stop offset="0" stop-color="#F2C86E"/><stop offset="1" stop-color="#D89A34"/></linearGradient><linearGradient id="cact" x1="0" y1="0" x2="0" y2="1"><stop offset="0" stop-color="#6FB05A"/><stop offset="1" stop-color="#3E7A34"/></linearGradient></defs><rect width="480" height="854" fill="url(#sky)"/><circle cx="388" cy="56" r="121.60000000000001" fill="url(#sunglow)"/><circle cx="388" cy="56" r="38" fill="url(#sundisc)"/><circle cx="388" cy="56" r="22.04" fill="#FFF3C0"/><g opacity="0.3"><path d="M384.921818710069,47.542766412926824 L98.08894241040684,136.61723567131037 L114.09548511804815,180.59485032409088 L391.078181289931,64.45723358707318 Z" fill="url(#ray)"/><path d="M378.39261706983774,45.81676901797732 L144.8087119096635,235.3960908073611 L194.76710314650728,288.3488919138791 L397.60738293016226,66.18323098202268 Z" fill="url(#ray)"/><path d="M370.5538939692748,48.47448444525602 L223.8161945083674,311.89849162174784 L314.53594586813847,351.03117250641657 L405.4461060307252,63.52551555474398 Z" fill="url(#ray)"/><path d="M379.0,56.0 L364.6,356.0 L411.4,356.0 L397.0,56.0 Z" fill="url(#ray)"/><path d="M375.14497450367617,61.545116724548194 L473.40086352130504,345.8821355479075 L540.246996102189,317.0475285802569 L400.85502549632383,50.454883275451806 Z" fill="url(#ray)"/><path d="M374.96140888049405,69.82009918988793 L572.3117555611992,297.80474925432867 L640.11242938263,225.94023346691148 L401.03859111950595,42.17990081011207 Z" fill="url(#ray)"/><path d="M384.921818710069,64.45723358707318 L661.9045148819519,180.59485032409088 L677.9110575895932,136.61723567131037 L391.078181289931,47.542766412926824 Z" fill="url(#ray)"/></g><path d="M0,96 L74,30 L132,86 L210,18 L288,88 L360,36 L432,92 L480,58 L480,150 L0,150 Z" fill="url(#peakA)"/><path d="M74,30 L110,66 L132,86 L96,96 L48,86 Z" fill="#FFFFFF"/><path d="M210,18 L252,62 L288,88 L232,98 L172,84 Z" fill="#FFFFFF"/><path d="M360,36 L398,74 L432,92 L378,100 L332,88 Z" fill="#FFFFFF"/><path d="M0,112 Q90,92 180,116 Q270,140 366,114 Q430,96 480,118 L480,186 Q380,166 288,188 Q190,210 96,184 Q40,168 0,182 Z" fill="#FFFFFF"/><path d="M0,124 Q90,104 180,128 Q270,152 366,126 Q430,108 480,130" stroke="#AECFE6" stroke-width="3" fill="none" opacity="0.9"/><circle cx="120" cy="168" r="12" fill="#FFFFFF"/><circle cx="117" cy="165" r="6" fill="#E6F2FA"/><circle cx="250" cy="182" r="9" fill="#FFFFFF"/><circle cx="247" cy="179" r="4" fill="#E6F2FA"/><circle cx="378" cy="166" r="11" fill="#FFFFFF"/><circle cx="375" cy="163" r="6" fill="#E6F2FA"/><path d="M0,320 Q160,296 320,324 Q420,340 480,318 L480,620 L0,620 Z" fill="url(#hazeA)" opacity="0.30"/><path d="M0,460 Q170,438 340,464 Q430,478 480,458 L480,640 L0,640 Z" fill="url(#hazeB)" opacity="0.26"/><path d="M0,650 Q130,618 260,648 Q380,676 480,644 L480,854 L0,854 Z" fill="#EAF4FB"/><path d="M0,726 Q150,700 300,728 Q400,746 480,720 L480,854 L0,854 Z" fill="#FFFFFF"/><rect x="75.0" y="776.0" width="6.0" height="12.0" fill="#5E3A20"/><path d="M78,746.0 L96.0,776.0 L60.0,776.0 Z" fill="#3E7A50"/><path d="M78,746.0 L89.0,764.0 L67.0,764.0 Z" fill="#FFFFFF" opacity="0.92"/><path d="M78,730.0 L91.68,760.0 L64.32,760.0 Z" fill="#2A5C3C"/><path d="M78,730.0 L86.36,748.0 L69.64,748.0 Z" fill="#FFFFFF" opacity="0.92"/><path d="M78,714.0 L87.0,744.0 L69.0,744.0 Z" fill="#3E7A50"/><path d="M78,714.0 L83.5,732.0 L72.5,732.0 Z" fill="#FFFFFF" opacity="0.92"/><rect x="147.9" y="811.0" width="4.199999999999999" height="8.399999999999999" fill="#5E3A20"/><path d="M150,790.0 L162.6,811.0 L137.4,811.0 Z" fill="#3E7A50"/><path d="M150,790.0 L157.7,802.6 L142.3,802.6 Z" fill="#FFFFFF" opacity="0.92"/><path d="M150,778.8 L159.576,799.8 L140.424,799.8 Z" fill="#2A5C3C"/><path d="M150,778.8 L155.852,791.4 L144.148,791.4 Z" fill="#FFFFFF" opacity="0.92"/><path d="M150,767.6 L156.3,788.6 L143.7,788.6 Z" fill="#3E7A50"/><path d="M150,767.6 L153.85,780.2 L146.15,780.2 Z" fill="#FFFFFF" opacity="0.92"/><rect x="398.7" y="769.0" width="6.6000000000000005" height="13.200000000000001" fill="#5E3A20"/><path d="M402,736.0 L421.8,769.0 L382.2,769.0 Z" fill="#3E7A50"/><path d="M402,736.0 L414.1,755.8 L389.9,755.8 Z" fill="#FFFFFF" opacity="0.92"/><path d="M402,718.4 L417.048,751.4 L386.952,751.4 Z" fill="#2A5C3C"/><path d="M402,718.4 L411.196,738.1999999999999 L392.804,738.1999999999999 Z" fill="#FFFFFF" opacity="0.92"/><path d="M402,700.8 L411.9,733.8 L392.1,733.8 Z" fill="#3E7A50"/><path d="M402,700.8 L408.05,720.5999999999999 L395.95,720.5999999999999 Z" fill="#FFFFFF" opacity="0.92"/><rect x="337.84" y="814.8" width="4.32" height="8.64" fill="#5E3A20"/><path d="M340,793.1999999999999 L352.96,814.8 L327.04,814.8 Z" fill="#3E7A50"/><path d="M340,793.1999999999999 L347.92,806.16 L332.08,806.16 Z" fill="#FFFFFF" opacity="0.92"/><path d="M340,781.68 L349.8496,803.28 L330.1504,803.28 Z" fill="#2A5C3C"/><path d="M340,781.68 L346.0192,794.64 L333.9808,794.64 Z" fill="#FFFFFF" opacity="0.92"/><path d="M340,770.16 L346.48,791.76 L333.52,791.76 Z" fill="#3E7A50"/><path d="M340,770.16 L343.96,783.12 L336.04,783.12 Z" fill="#FFFFFF" opacity="0.92"/><g transform="translate(230,828) rotate(0)"><path d="M-20,8.0 L-15.0,-11.0 L-2.0,-20 L14.399999999999999,-12.4 L20,7.0 L7.0,15.0 L-10.0,16.0 Z" fill="url(#rock)"/><path d="M-15.0,-11.0 L-2.0,-20 L4.0,-6.0 L-8.0,2.0 Z" fill="#FFFFFF" opacity="0.16"/></g><ellipse cx="230" cy="815" rx="18" ry="8" fill="#FFFFFF"/><g transform="translate(444,830) rotate(0)"><path d="M-16,6.4 L-12.0,-8.8 L-1.6,-16 L11.52,-9.92 L16,5.6 L5.6,12.0 L-8.0,12.8 Z" fill="url(#rock)"/><path d="M-12.0,-8.8 L-1.6,-16 L3.2,-4.8 L-6.4,1.6 Z" fill="#FFFFFF" opacity="0.16"/></g><ellipse cx="444" cy="819" rx="14" ry="6" fill="#FFFFFF"/><path d="M0,90 L44,96 L46,854 L0,854 Z" fill="url(#chuteA)"/><path d="M33.61815225720034,429.5251788756381 L43.61815225720034,429.5251788756381 L38.61815225720034,463.1080425085416 Z" fill="#EAF7FF" opacity="0.85"/><path d="M1.171498447628208,771.5142981050043 L11.171498447628208,771.5142981050043 L6.171498447628208,792.8226689514222 Z" fill="#EAF7FF" opacity="0.85"/><path d="M-2.2103527574959676,363.26460313612716 L7.789647242504032,363.26460313612716 L2.7896472425040324,389.6162666441059 Z" fill="#EAF7FF" opacity="0.85"/><path d="M21.4368634288584,694.1825098249693 L31.4368634288584,694.1825098249693 L26.4368634288584,714.6629971355179 Z" fill="#EAF7FF" opacity="0.85"/><path d="M21.063146086119588,740.6748596576564 L31.063146086119588,740.6748596576564 L26.063146086119588,761.8714567939969 Z" fill="#EAF7FF" opacity="0.85"/><path d="M35.310331074961155,495.46974376270754 L45.310331074961155,495.46974376270754 L40.310331074961155,521.1537940147952 Z" fill="#EAF7FF" opacity="0.85"/><path d="M20.228973798260043,476.52029471260397 L30.228973798260043,476.52029471260397 L25.228973798260043,499.4720304376905 Z" fill="#EAF7FF" opacity="0.85"/><path d="M10.06229346022902,227.60171008397657 L20.06229346022902,227.60171008397657 L15.06229346022902,250.2939103301066 Z" fill="#EAF7FF" opacity="0.85"/><path d="M21.18233850580165,543.6094405626898 L31.18233850580165,543.6094405626898 L26.18233850580165,575.2876631019486 Z" fill="#EAF7FF" opacity="0.85"/><path d="M29.720151804167088,116.74411418373757 L39.72015180416709,116.74411418373757 L34.72015180416709,140.96261014996145 Z" fill="#EAF7FF" opacity="0.85"/><path d="M0,86 L46,92 L46,104 L0,98 Z" fill="#FFFFFF" opacity="0.30"/><path d="M288.5347796492629,0 L304.5347796492629,0 L296.5347796492629,37.28646172077896 Z" fill="#EAF7FF" opacity="0.95"/><path d="M367.78904016022045,0 L383.78904016022045,0 L375.78904016022045,42.50370737820331 Z" fill="#EAF7FF" opacity="0.95"/><path d="M342.3533443803681,0 L358.3533443803681,0 L350.3533443803681,41.980449913300845 Z" fill="#EAF7FF" opacity="0.95"/><path d="M15.342405010462777,0 L31.342405010462777,0 L23.342405010462777,30.10618901383074 Z" fill="#EAF7FF" opacity="0.95"/><path d="M435.9440898192243,0 L451.9440898192243,0 L443.9440898192243,34.87333838156003 Z" fill="#EAF7FF" opacity="0.95"/><path d="M416.41422620528647,0 L432.41422620528647,0 L424.41422620528647,20.943355080981753 Z" fill="#EAF7FF" opacity="0.95"/><path d="M217.77176197979531,0 L233.77176197979531,0 L225.77176197979531,24.41089364811559 Z" fill="#EAF7FF" opacity="0.95"/><path d="M252.12999524852796,0 L268.12999524852796,0 L260.12999524852796,32.92247088613062 Z" fill="#EAF7FF" opacity="0.95"/><path d="M8.032527210895012,0 L24.03252721089501,0 L16.03252721089501,23.63497481206005 Z" fill="#EAF7FF" opacity="0.95"/><rect x="-8.5" y="135.0" width="9.0" height="18.0" fill="#5E3A20"/><path d="M-4,90.0 L23.0,135.0 L-31.0,135.0 Z" fill="#3E7A50"/><path d="M-4,90.0 L12.5,117.0 L-20.5,117.0 Z" fill="#FFFFFF" opacity="0.92"/><path d="M-4,66.0 L16.52,111.0 L-24.52,111.0 Z" fill="#2A5C3C"/><path d="M-4,66.0 L8.540000000000001,93.0 L-16.54,93.0 Z" fill="#FFFFFF" opacity="0.92"/><path d="M-4,42.0 L9.5,87.0 L-17.5,87.0 Z" fill="#3E7A50"/><path d="M-4,42.0 L4.25,69.0 L-12.25,69.0 Z" fill="#FFFFFF" opacity="0.92"/><rect x="481.5" y="145.0" width="9.0" height="18.0" fill="#5E3A20"/><path d="M486,100.0 L513.0,145.0 L459.0,145.0 Z" fill="#3E7A50"/><path d="M486,100.0 L502.5,127.0 L469.5,127.0 Z" fill="#FFFFFF" opacity="0.92"/><path d="M486,76.0 L506.52,121.0 L465.48,121.0 Z" fill="#2A5C3C"/><path d="M486,76.0 L498.54,103.0 L473.46,103.0 Z" fill="#FFFFFF" opacity="0.92"/><path d="M486,52.0 L499.5,97.0 L472.5,97.0 Z" fill="#3E7A50"/><path d="M486,52.0 L494.25,79.0 L477.75,79.0 Z" fill="#FFFFFF" opacity="0.92"/><circle cx="298.9928135470569" cy="633.4860888286629" r="3.5" fill="#FFFFFF" opacity="0.92"/><circle cx="355.15131587516674" cy="787.6655471522661" r="1.7" fill="#FFFFFF" opacity="0.71"/><circle cx="452.8112241591906" cy="554.2242683789333" r="3.8" fill="#FFFFFF" opacity="0.55"/><circle cx="225.1531429354386" cy="210.5731990573351" r="2.9" fill="#FFFFFF" opacity="0.76"/><circle cx="6.2948110026730575" cy="185.08724959612633" r="2.3" fill="#FFFFFF" opacity="0.91"/><circle cx="367.54821678198806" cy="136.30199735376465" r="3.5" fill="#FFFFFF" opacity="0.56"/><circle cx="296.377209823736" cy="108.20114459793034" r="1.6" fill="#FFFFFF" opacity="0.89"/><circle cx="100.5390635976566" cy="184.02091851792136" r="4.0" fill="#FFFFFF" opacity="0.89"/><circle cx="138.86648051852472" cy="821.1022025633713" r="2.9" fill="#FFFFFF" opacity="0.81"/><circle cx="98.29416697622057" cy="803.5935049291512" r="3.3" fill="#FFFFFF" opacity="0.93"/><circle cx="428.99600523670966" cy="255.16571876720306" r="2.5" fill="#FFFFFF" opacity="0.57"/><circle cx="69.9369165795276" cy="55.62931522282752" r="2.3" fill="#FFFFFF" opacity="0.77"/><circle cx="1.6238972996912437" cy="578.9558491137283" r="2.4" fill="#FFFFFF" opacity="0.64"/><circle cx="392.888675830594" cy="410.5563893820533" r="2.4" fill="#FFFFFF" opacity="0.72"/><circle cx="338.24118438763645" cy="48.67879382356461" r="3.9" fill="#FFFFFF" opacity="0.51"/><circle cx="359.90161069981116" cy="721.5282795374627" r="1.6" fill="#FFFFFF" opacity="0.85"/><circle cx="175.76854840409305" cy="494.0550800145709" r="1.6" fill="#FFFFFF" opacity="0.52"/><circle cx="86.84135421650296" cy="815.7236342508561" r="2.1" fill="#FFFFFF" opacity="0.84"/><circle cx="446.23455340681016" cy="804.5054303312553" r="2.4" fill="#FFFFFF" opacity="0.66"/><circle cx="251.8568739326976" cy="662.3649745529419" r="1.9" fill="#FFFFFF" opacity="0.84"/><circle cx="382.66880524383976" cy="734.1789485861934" r="1.7" fill="#FFFFFF" opacity="0.93"/><circle cx="43.766334802448924" cy="290.9924173206058" r="3.1" fill="#FFFFFF" opacity="0.91"/><circle cx="163.1805727804054" cy="789.2647669913332" r="2.9" fill="#FFFFFF" opacity="0.64"/><circle cx="152.06399311842105" cy="151.56602028126022" r="1.8" fill="#FFFFFF" opacity="0.57"/><circle cx="330.8038019274601" cy="851.2046996143451" r="2.0" fill="#FFFFFF" opacity="0.52"/><circle cx="473.61557221644836" cy="455.6352531221525" r="2.6" fill="#FFFFFF" opacity="0.61"/></svg>