<svg xmlns="http://www.w3.org/2000/svg" width="960" height="1708" viewBox="0 0 480 854"><defs><linearGradient id="sky" x1="0" y1="0" x2="0" y2="1"><stop offset="0" stop-color="#8EB6CE"/><stop offset="0.36" stop-color="#B6D2E2"/><stop offset="0.7" stop-color="#DCEAF2"/><stop offset="1" stop-color="#F4FAFE"/></linearGradient><linearGradient id="hillfar" x1="0" y1="0" x2="0" y2="1"><stop offset="0" stop-color="#AEC6D6"/><stop offset="1" stop-color="#8EA8BC"/></linearGradient><linearGradient id="hazeA" x1="0" y1="0" x2="0" y2="1"><stop offset="0" stop-color="#D2E4EE"/><stop offset="1" stop-color="#B0C8D8"/></linearGradient><linearGradient id="hazeB" x1="0" y1="0" x2="0" y2="1"><stop offset="0" stop-color="#E8F2F8"/><stop offset="1" stop-color="#C6DAE6"/></linearGradient><linearGradient id="groundA" x1="0" y1="0" x2="0" y2="1"><stop offset="0" stop-color="#DCEAF4"/><stop offset="1" stop-color="#BCD2E2"/></linearGradient><linearGradient id="groundB" x1="0" y1="0" x2="0" y2="1"><stop offset="0" stop-color="#FFFFFF"/><stop offset="1" stop-color="#E2EEF6"/></linearGradient><linearGradient id="leaf" x1="0" y1="0" x2="0" y2="1"><stop offset="0" stop-color="#2A5C3C"/><stop offset="1" stop-color="#1A3E28"/></linearGradient><linearGradient id="leafhi" x1="0" y1="0" x2="0" y2="1"><stop offset="0" stop-color="#FFFFFF"/><stop offset="1" stop-color="#DCEFF0"/></linearGradient><linearGradient id="chuteA" x1="0" y1="0" x2="0" y2="1"><stop offset="0" stop-color="#CFE4F0"/><stop offset="1" stop-color="#9EBED4"/></linearGradient><radialGradient id="sundisc" cx="0.5" cy="0.5" r="0.5"><stop offset="0" stop-color="#FFFBE0"/><stop offset="0.6" stop-color="#FFEEA8"/><stop offset="1" stop-color="#FFD98A"/></radialGradient><radialGradient id="sunglow" cx="0.5" cy="0.5" r="0.5"><stop offset="0" stop-color="#FFE9A8" stop-opacity="0.85"/><stop offset="0.5" stop-color="#FFE9A8" stop-opacity="0.35"/><stop offset="1" stop-color="#FFE9A8" stop-opacity="0.0"/></radialGradient><linearGradient id="ray" x1="0" y1="0" x2="0" y2="1"><stop offset="0" stop-color="#FFF6CE" stop-opacity="0.5"/><stop offset="1" stop-color="#FFF6CE" stop-opacity="0.0"/></linearGradient><linearGradient id="rock" x1="0" y1="0" x2="0" y2="1"><stop offset="0" stop-color="#C9AE86"/><stop offset="1" stop-color="#8A6B4A"/></linearGradient><linearGradient id="rockdark" x1="0" y1="0" x2="0" y2="1"><stop offset="0" stop-color="#8A7256"/><stop offset="1" stop-color="#4E3E2C"/></linearGradient><linearGradient id="cliffA" x1="0" y1="0" x2="0" y2="1"><stop offset="0" stop-color="#B49470"/><stop offset="1" stop-color="#7E6448"/></linearGradient><linearGradient id="cliffB" x1="0" y1="0" x2="0" y2="1"><stop offset="0" stop-color="#8E7454"/><stop offset="1" stop-color="#5E4A32"/></linearGradient><linearGradient id="peakA" x1="0" y1="0" x2="0" y2="1"><stop offset="0" stop-color="#CFE0EC"/><stop offset="1" stop-color="#8FB0C8"/></linearGradient><linearGradient id="water" x1="0" y1="0" x2="0" y2="1"><stop offset="0" stop-color="#EAFBFF"/><stop offset="0.35" stop-color="#9FE6F2"/><stop offset="1" stop-color="#37AED2"/></linearGradient><linearGradient id="volc" x1="0" y1="0" x2="0" y2="1"><stop offset="0" stop-color="#6E3A2A"/><stop offset="1" stop-color="#2E1812"/></linearGradient><radialGradient id="lavaglow" cx="0.5" cy="0.5" r="0.5"><stop offset="0" stop-color="#FF8A3D" stop-opacity="0.75"/><stop offset="1" stop-color="#FF8A3D" stop-opacity="0.0"/></radialGradient><linearGradient id="lava" x1="0" y1="0" x2="0" y2="1"><stop offset="0" stop-color="#FFD24A"/><stop offset="1" stop-color="#FF5A2D"/></linearGradient><linearGradient id="mudA" x1="0" y1="0" x2="0" y2="1"><stop offset="0" stop-color="#8A5E34"/><stop offset="1" stop-color="#5E3C1E"/></linearGradient><linearGradient id="mudB" x1="0" y1="0" x2="0" y2="1"><stop offset="0" stop-color="#6E4826"/><stop offset="1" stop-color="#432B12"/></linearGradient><linearGradient id="sandwall" x1="0" y1="0" x2="0" y2="1"><stop offset="0" stop-color="#F2C86E"/><stop offset="1" stop-color="#D89A34"/></linearGradient><linearGradient id="cact" x1="0" y1="0" x2="0" y2="1"><stop offset="0" stop-color="#6FB05A"/><stop offset="1" stop-color="#3E7A34"/></linearGradient></defs><rect width="480" height="854" fill="url(#sky)"/><path d="M0,104 L80,48 L150,100 L236,40 L318,102 L400,56 L480,104 L480,160 L0,160 Z" fill="url(#peakA)" opacity="0.75"/><path d="M236,40 L272,80 L318,102 L262,110 L196,98 Z" fill="#FFFFFF" opacity="0.9"/><path d="M282.2613456001788,168.8775520460584 q49,-7 98,2" stroke="#FFFFFF" stroke-width="4.5" fill="none" opacity="0.68"/><path d="M64.76639558030904,122.49632503331578 q87,2 175,2" stroke="#FFFFFF" stroke-width="3.7" fill="none" opacity="0.42"/><path d="M93.80081886982626,83.76848172718552 q96,8 191,2" stroke="#FFFFFF" stroke-width="4.8" fill="none" opacity="0.59"/><path d="M51.20185216077155,86.06637857358828 q48,-8 95,2" stroke="#FFFFFF" stroke-width="3.4" fill="none" opacity="0.49"/><path d="M263.2084156616177,75.56241734791529 q82,1 164,2" stroke="#FFFFFF" stroke-width="2.7" fill="none" opacity="0.36"/><path d="M6.477113615398665,66.67315445930792 q81,8 161,2" stroke="#FFFFFF" stroke-width="4.0" fill="none" opacity="0.43"/><path d="M230.89837328335744,158.75858892644413 q96,7 193,2" stroke="#FFFFFF" stroke-width="4.3" fill="none" opacity="0.71"/><path d="M293.532034844523,71.31349041033977 q112,-5 225,2" stroke="#FFFFFF" stroke-width="4.3" fill="none" opacity="0.67"/><path d="M140.3209434819713,88.74788503420038 q79,7 159,2" stroke="#FFFFFF" stroke-width="3.5" fill="none" opacity="0.72"/><path d="M260.16931231762607,71.33572118873198 q108,-1 216,2" stroke="#FFFFFF" stroke-width="3.7" fill="none" opacity="0.76"/><path d="M125.44690865293893,131.25121852726699 q61,-3 121,2" stroke="#FFFFFF" stroke-width="4.1" fill="none" opacity="0.42"/><path d="M51.166754385937566,161.08636045342732 q109,-3 218,2" stroke="#FFFFFF" stroke-width="4.9" fill="none" opacity="0.67"/><path d="M136.0342370905077,95.68830835129745 q91,1 181,2" stroke="#FFFFFF" stroke-width="2.9" fill="none" opacity="0.44"/><path d="M277.61248210548473,96.92644865355577 q89,-7 177,2" stroke="#FFFFFF" stroke-width="4.5" fill="none" opacity="0.68"/><circle cx="392" cy="62" r="34" fill="#FFFFFF" opacity="0.45"/><circle cx="392" cy="62" r="20" fill="#FFFFFF" opacity="0.7"/><rect x="0" y="240" width="480" height="400" fill="#FFFFFF" opacity="0.22"/><path d="M177.37183656343342,485.55755931360164 q132,5 263,1" stroke="#FFFFFF" stroke-width="3" fill="none" opacity="0.35"/><path d="M235.1439989329334,524.1665296641771 q63,-0 125,1" stroke="#FFFFFF" stroke-width="3" fill="none" opacity="0.35"/><path d="M147.67185700381575,591.3077166094436 q141,-5 282,1" stroke="#FFFFFF" stroke-width="3" fill="none" opacity="0.35"/><path d="M18.90330643834571,434.7927857681141 q109,1 218,1" stroke="#FFFFFF" stroke-width="3" fill="none" opacity="0.35"/><path d="M9.353536148431402,284.32768256433775 q85,5 170,1" stroke="#FFFFFF" stroke-width="3" fill="none" opacity="0.35"/><path d="M-8.926652045427765,532.6893990376168 q132,-4 263,1" stroke="#FFFFFF" stroke-width="3" fill="none" opacity="0.35"/><path d="M-19.45624558391369,483.7593317538185 q60,4 120,1" stroke="#FFFFFF" stroke-width="3" fill="none" opacity="0.35"/><path d="M8.953974151914323,349.1206062233889 q148,4 297,1" stroke="#FFFFFF" stroke-width="3" fill="none" opacity="0.35"/><path d="M247.6729564640267,375.4707053564857 q109,2 217,1" stroke="#FFFFFF" stroke-width="3" fill="none" opacity="0.35"/><path d="M0,656 Q140,624 280,654 Q390,678 480,648 L480,854 L0,854 Z" fill="#E4F1FA"/><path d="M0,736 Q150,708 300,738 Q400,756 480,730 L480,854 L0,854 Z" fill="#FFFFFF"/><rect x="63.15" y="786.5" width="5.699999999999999" height="11.399999999999999" fill="#5E3A20"/><path d="M66,758.0 L83.1,786.5 L48.900000000000006,786.5 Z" fill="#3E7A50"/><path d="M66,758.0 L76.45,775.1 L55.55,775.1 Z" fill="#FFFFFF" opacity="0.92"/><path d="M66,742.8 L78.996,771.3 L53.004000000000005,771.3 Z" fill="#2A5C3C"/><path d="M66,742.8 L73.942,759.9 L58.058,759.9 Z" fill="#FFFFFF" opacity="0.92"/><path d="M66,727.6 L74.55,756.1 L57.45,756.1 Z" fill="#3E7A50"/><path d="M66,727.6 L71.225,744.7 L60.775,744.7 Z" fill="#FFFFFF" opacity="0.92"/><rect x="134.02" y="819.4" width="3.96" height="7.92" fill="#5E3A20"/><path d="M136,799.6 L147.88,819.4 L124.12,819.4 Z" fill="#3E7A50"/><path d="M136,799.6 L143.26,811.48 L128.74,811.48 Z" fill="#FFFFFF" opacity="0.92"/><path d="M136,789.0400000000001 L145.0288,808.84 L126.9712,808.84 Z" fill="#2A5C3C"/><path d="M136,789.0400000000001 L141.5176,800.9200000000001 L130.4824,800.9200000000001 Z" fill="#FFFFFF" opacity="0.92"/><path d="M136,778.48 L141.94,798.28 L130.06,798.28 Z" fill="#3E7A50"/><path d="M136,778.48 L139.63,790.36 L132.37,790.36 Z" fill="#FFFFFF" opacity="0.92"/><rect x="411.0" y="780.0" width="6.0" height="12.0" fill="#5E3A20"/><path d="M414,750.0 L432.0,780.0 L396.0,780.0 Z" fill="#3E7A50"/><path d="M414,750.0 L425.0,768.0 L403.0,768.0 Z" fill="#FFFFFF" opacity="0.92"/><path d="M414,734.0 L427.68,764.0 L400.32,764.0 Z" fill="#2A5C3C"/><path d="M414,734.0 L422.36,752.0 L405.64,752.0 Z" fill="#FFFFFF" opacity="0.92"/><path d="M414,718.0 L423.0,748.0 L405.0,748.0 Z" fill="#3E7A50"/><path d="M414,718.0 L419.5,736.0 L408.5,736.0 Z" fill="#FFFFFF" opacity="0.92"/><rect x="345.96" y="821.2" width="4.08" height="8.16" fill="#5E3A20"/><path d="M348,800.8000000000001 L360.24,821.2 L335.76,821.2 Z" fill="#3E7A50"/><path d="M348,800.8000000000001 L355.48,813.0400000000001 L340.52,813.0400000000001 Z" fill="#FFFFFF" opacity="0.92"/><path d="M348,789.9200000000001 L357.3024,810.32 L338.6976,810.32 Z" fill="#2A5C3C"/><path d="M348,789.9200000000001 L353.6848,802.1600000000001 L342.3152,802.1600000000001 Z" fill="#FFFFFF" opacity="0.92"/><path d="M348,779.0400000000001 L354.12,799.44 L341.88,799.44 Z" fill="#3E7A50"/><path d="M348,779.0400000000001 L351.74,791.2800000000001 L344.26,791.2800000000001 Z" fill="#FFFFFF" opacity="0.92"/><path d="M213,780 L243,780 L228,820 Z" fill="#EAF7FF" opacity="0.95"/><path d="M289,806 L311,806 L300,834 Z" fill="#EAF7FF" opacity="0.95"/><path d="M454,794 L478,794 L466,826 Z" fill="#EAF7FF" opacity="0.95"/><path d="M11.288719134330655,747.2795836656417 q81,-4 162,2" stroke="#FFFFFF" stroke-width="3" fill="none" opacity="0.5"/><path d="M142.1998814642743,710.5756978534613 q65,-4 130,2" stroke="#FFFFFF" stroke-width="3" fill="none" opacity="0.5"/><path d="M132.5281492844029,708.4678430171072 q47,-4 94,2" stroke="#FFFFFF" stroke-width="3" fill="none" opacity="0.5"/><path d="M-16.24915598462956,763.3122698147083 q50,-4 100,2" stroke="#FFFFFF" stroke-width="3" fill="none" opacity="0.5"/><path d="M241.12972238849295,761.979801614807 q52,-4 104,2" stroke="#FFFFFF" stroke-width="3" fill="none" opacity="0.5"/><path d="M173.32729561790035,732.5928888326241 q97,-4 194,2" stroke="#FFFFFF" stroke-width="3" fill="none" opacity="0.5"/><path d="M94.87136138126525,784.2570304981548 q99,-4 197,2" stroke="#FFFFFF" stroke-width="3" fill="none" opacity="0.5"/><path d="M0,90 L44,96 L46,854 L0,854 Z" fill="url(#chuteA)"/><path d="M-0.5403994585761991,169.29721016551488 L9.4596005414238,169.29721016551488 L4.459600541423801,194.1420807221325 Z" fill="#EAF7FF" opacity="0.85"/><path d="M21.528038081985414,270.0810863189782 L31.528038081985414,270.0810863189782 L26.528038081985414,301.73991165062466 Z" fill="#EAF7FF" opacity="0.85"/><path d="M14.239449102541382,332.58873131995574 L24.239449102541382,332.58873131995574 L19.239449102541382,358.97883880151636 Z" fill="#EAF7FF" opacity="0.85"/><path d="M13.71233810182164,296.26646264460487 L23.71233810182164,296.26646264460487 L18.71233810182164,326.02241524598907 Z" fill="#EAF7FF" opacity="0.85"/><path d="M-1.4392148139651413,276.2975142993913 L8.56078518603486,276.2975142993913 L3.5607851860348587,294.2285354507155 Z" fill="#EAF7FF" opacity="0.85"/><path d="M19.717273206830267,121.65509822436817 L29.717273206830267,121.65509822436817 L24.717273206830267,153.56620054873656 Z" fill="#EAF7FF" opacity="0.85"/><path d="M23.151946962938872,166.38171028995282 L33.15194696293887,166.38171028995282 L28.151946962938872,192.71045840994782 Z" fill="#EAF7FF" opacity="0.85"/><path d="M25.70795102431792,348.23940992286487 L35.70795102431792,348.23940992286487 L30.70795102431792,377.98380303708956 Z" fill="#EAF7FF" opacity="0.85"/><path d="M30.832901483399425,624.6801182845144 L40.832901483399425,624.6801182845144 L35.832901483399425,658.5971684448558 Z" fill="#EAF7FF" opacity="0.85"/><path d="M27.503018994132454,312.51950807834345 L37.503018994132454,312.51950807834345 L32.503018994132454,338.7217228109409 Z" fill="#EAF7FF" opacity="0.85"/><path d="M0,86 L46,92 L46,104 L0,98 Z" fill="#FFFFFF" opacity="0.30"/><path d="M213.68744345743005,0 L231.68744345743005,0 L222.68744345743005,31.945981804641345 Z" fill="#FFFFFF" opacity="0.95"/><path d="M61.836445056765044,0 L79.83644505676504,0 L70.83644505676504,47.72997919956292 Z" fill="#FFFFFF" opacity="0.95"/><path d="M0.011605309965716515,0 L18.011605309965717,0 L9.011605309965717,36.089026561670664 Z" fill="#FFFFFF" opacity="0.95"/><path d="M417.403449974947,0 L435.403449974947,0 L426.403449974947,22.586068709856033 Z" fill="#FFFFFF" opacity="0.95"/><path d="M256.39857910743785,0 L274.39857910743785,0 L265.39857910743785,39.73280136587579 Z" fill="#FFFFFF" opacity="0.95"/><path d="M16.139218246891808,0 L34.13921824689181,0 L25.139218246891808,32.12862734065394 Z" fill="#FFFFFF" opacity="0.95"/><path d="M326.22882359347363,0 L344.22882359347363,0 L335.22882359347363,34.46466945440082 Z" fill="#FFFFFF" opacity="0.95"/><path d="M336.33059249647386,0 L354.33059249647386,0 L345.33059249647386,25.029029171092027 Z" fill="#FFFFFF" opacity="0.95"/><path d="M108.38971075433733,0 L126.38971075433733,0 L117.38971075433733,23.55032089529647 Z" fill="#FFFFFF" opacity="0.95"/><path d="M233.9339161810837,0 L251.9339161810837,0 L242.9339161810837,49.56255316519346 Z" fill="#FFFFFF" opacity="0.95"/><path d="M273.32051793960704,0 L291.32051793960704,0 L282.32051793960704,44.774702951536355 Z" fill="#FFFFFF" opacity="0.95"/><path d="M176.55514739103936,0 L194.55514739103936,0 L185.55514739103936,43.875046941581715 Z" fill="#FFFFFF" opacity="0.95"/><path d="M0,0 L0,140 Q30,90 22,0 Z" fill="#FFFFFF" opacity="0.5"/><path d="M480,0 L480,150 Q450,96 458,0 Z" fill="#FFFFFF" opacity="0.5"/><circle cx="458.8964505068397" cy="809.4446739486843" r="1.7" fill="#FFFFFF" opacity="0.54"/><circle cx="401.0394615021358" cy="628.5183706645189" r="3.2" fill="#FFFFFF" opacity="0.64"/><circle cx="290.853199525662" cy="518.2086805292755" r="3.0" fill="#FFFFFF" opacity="0.57"/><circle cx="206.72142733980894" cy="336.07617445538716" r="3.3" fill="#FFFFFF" opacity="0.95"/><circle cx="455.7098270847569" cy="464.72719850464" r="2.7" fill="#FFFFFF" opacity="0.62"/><circle cx="17.243678108571654" cy="23.43790795555943" r="2.7" fill="#FFFFFF" opacity="0.64"/><circle cx="182.40716251234159" cy="761.5881969853575" r="2.9" fill="#FFFFFF" opacity="0.75"/><circle cx="113.3392354152298" cy="20.374799586227994" r="2.4" fill="#FFFFFF" opacity="0.56"/><circle cx="244.90744600185656" cy="852.8757672364394" r="3.2" fill="#FFFFFF" opacity="0.58"/><circle cx="428.91433755983445" cy="680.4329728940802" r="3.4" fill="#FFFFFF" opacity="0.91"/><circle cx="366.1850322398741" cy="674.4444823923458" r="2.4" fill="#FFFFFF" opacity="0.94"/><circle cx="461.7124501911484" cy="137.65169392163213" r="3.4" fill="#FFFFFF" opacity="0.82"/><circle cx="221.47521491614927" cy="452.92378156942203" r="2.8" fill="#FFFFFF" opacity="0.92"/><circle cx="240.40371006271434" cy="710.1219142822076" r="2.4" fill="#FFFFFF" opacity="0.90"/><circle cx="431.8562826031804" cy="393.70438880891857" r="3.0" fill="#FFFFFF" opacity="0.91"/><circle cx="347.4110178585688" cy="415.56370585179366" r="2.1" fill="#FFFFFF" opacity="0.65"/><circle cx="335.7943862737169" cy="141.82351141198373" r="3.8" fill="#FFFFFF" opacity="0.62"/><circle cx="437.46136121666245" cy="264.3669087068394" r="3.9" fill="#FFFFFF" opacity="0.82"/><circle cx="242.03943215199243" cy="442.1565837508635" r="3.2" fill="#FFFFFF" opacity="0.76"/><circle cx="149.6852757844801" cy="177.47697725538987" r="2.8" fill="#FFFFFF" opacity="0.92"/><circle cx="299.1672416284187" cy="64.37056518923478" r="3.6" fill="#FFFFFF" opacity="0.83"/><circle cx="435.673738056634" cy="163.45793424171634" r="3.4" fill="#FFFFFF" opacity="0.53"/><circle cx="313.39676516858384" cy="233.22717141592554" r="2.1" fill="#FFFFFF" opacity="0.89"/><circle cx="51.007671669851945" cy="446.0977162165262" r="3.6" fill="#FFFFFF" opacity="0.61"/><circle cx="101.02989057391031" cy="752.0168224988031" r="2.6" fill="#FFFFFF" opacity="0.82"/><circle cx="15.299073660837657" cy="309.4528022529675" r="2.0" fill="#FFFFFF" opacity="0.80"/></svg>