<svg xmlns="http://www.w3.org/2000/svg" width="960" height="1708" viewBox="0 0 480 854"><defs><linearGradient id="sky" x1="0" y1="0" x2="0" y2="1"><stop offset="0" stop-color="#22B0F0"/><stop offset="0.42" stop-color="#6FCDF0"/><stop offset="0.74" stop-color="#BFE8F2"/><stop offset="1" stop-color="#E8F7DE"/></linearGradient><linearGradient id="hillfar" x1="0" y1="0" x2="0" y2="1"><stop offset="0" stop-color="#8FC0D8"/><stop offset="1" stop-color="#6E9EBC"/></linearGradient><linearGradient id="hazeA" x1="0" y1="0" x2="0" y2="1"><stop offset="0" stop-color="#8FD08A"/><stop offset="1" stop-color="#5EA46A"/></linearGradient><linearGradient id="hazeB" x1="0" y1="0" x2="0" y2="1"><stop offset="0" stop-color="#AEE49A"/><stop offset="1" stop-color="#78BE72"/></linearGradient><linearGradient id="groundA" x1="0" y1="0" x2="0" y2="1"><stop offset="0" stop-color="#5FBE38"/><stop offset="1" stop-color="#3E8E24"/></linearGradient><linearGradient id="groundB" x1="0" y1="0" x2="0" y2="1"><stop offset="0" stop-color="#3E8E24"/><stop offset="1" stop-color="#286614"/></linearGradient><linearGradient id="leaf" x1="0" y1="0" x2="0" y2="1"><stop offset="0" stop-color="#2E7A1A"/><stop offset="1" stop-color="#164A10"/></linearGradient><linearGradient id="leafhi" x1="0" y1="0" x2="0" y2="1"><stop offset="0" stop-color="#9BEA52"/><stop offset="1" stop-color="#2E8A1E"/></linearGradient><linearGradient id="chuteA" x1="0" y1="0" x2="0" y2="1"><stop offset="0" stop-color="#5E8A4E"/><stop offset="1" stop-color="#38602E"/></linearGradient><radialGradient id="sundisc" cx="0.5" cy="0.5" r="0.5"><stop offset="0" stop-color="#FFFBE0"/><stop offset="0.6" stop-color="#FFEEA8"/><stop offset="1" stop-color="#FFD98A"/></radialGradient><radialGradient id="sunglow" cx="0.5" cy="0.5" r="0.5"><stop offset="0" stop-color="#FFE9A8" stop-opacity="0.85"/><stop offset="0.5" stop-color="#FFE9A8" stop-opacity="0.35"/><stop offset="1" stop-color="#FFE9A8" stop-opacity="0.0"/></radialGradient><linearGradient id="ray" x1="0" y1="0" x2="0" y2="1"><stop offset="0" stop-color="#FFF6CE" stop-opacity="0.5"/><stop offset="1" stop-color="#FFF6CE" stop-opacity="0.0"/></linearGradient><linearGradient id="rock" x1="0" y1="0" x2="0" y2="1"><stop offset="0" stop-color="#C9AE86"/><stop offset="1" stop-color="#8A6B4A"/></linearGradient><linearGradient id="rockdark" x1="0" y1="0" x2="0" y2="1"><stop offset="0" stop-color="#8A7256"/><stop offset="1" stop-color="#4E3E2C"/></linearGradient><linearGradient id="cliffA" x1="0" y1="0" x2="0" y2="1"><stop offset="0" stop-color="#B49470"/><stop offset="1" stop-color="#7E6448"/></linearGradient><linearGradient id="cliffB" x1="0" y1="0" x2="0" y2="1"><stop offset="0" stop-color="#8E7454"/><stop offset="1" stop-color="#5E4A32"/></linearGradient><linearGradient id="peakA" x1="0" y1="0" x2="0" y2="1"><stop offset="0" stop-color="#CFE0EC"/><stop offset="1" stop-color="#8FB0C8"/></linearGradient><linearGradient id="water" x1="0" y1="0" x2="0" y2="1"><stop offset="0" stop-color="#EAFBFF"/><stop offset="0.35" stop-color="#9FE6F2"/><stop offset="1" stop-color="#37AED2"/></linearGradient><linearGradient id="volc" x1="0" y1="0" x2="0" y2="1"><stop offset="0" stop-color="#6E3A2A"/><stop offset="1" stop-color="#2E1812"/></linearGradient><radialGradient id="lavaglow" cx="0.5" cy="0.5" r="0.5"><stop offset="0" stop-color="#FF8A3D" stop-opacity="0.75"/><stop offset="1" stop-color="#FF8A3D" stop-opacity="0.0"/></radialGradient><linearGradient id="lava" x1="0" y1="0" x2="0" y2="1"><stop offset="0" stop-color="#FFD24A"/><stop offset="1" stop-color="#FF5A2D"/></linearGradient><linearGradient id="mudA" x1="0" y1="0" x2="0" y2="1"><stop offset="0" stop-color="#8A5E34"/><stop offset="1" stop-color="#5E3C1E"/></linearGradient><linearGradient id="mudB" x1="0" y1="0" x2="0" y2="1"><stop offset="0" stop-color="#6E4826"/><stop offset="1" stop-color="#432B12"/></linearGradient><linearGradient id="sandwall" x1="0" y1="0" x2="0" y2="1"><stop offset="0" stop-color="#F2C86E"/><stop offset="1" stop-color="#D89A34"/></linearGradient><linearGradient id="cact" x1="0" y1="0" x2="0" y2="1"><stop offset="0" stop-color="#6FB05A"/><stop offset="1" stop-color="#3E7A34"/></linearGradient></defs><rect width="480" height="854" fill="url(#sky)"/><circle cx="392" cy="60" r="147.20000000000002" fill="url(#sunglow)"/><circle cx="392" cy="60" r="46" fill="url(#sundisc)"/><circle cx="392" cy="60" r="26.68" fill="#FFF3C0"/><g opacity="0.3"><path d="M388.921818710069,51.542766412926824 L102.08894241040684,140.61723567131037 L118.09548511804815,184.59485032409088 L395.078181289931,68.45723358707318 Z" fill="url(#ray)"/><path d="M382.39261706983774,49.81676901797732 L148.8087119096635,239.3960908073611 L198.76710314650728,292.3488919138791 L401.60738293016226,70.18323098202268 Z" fill="url(#ray)"/><path d="M374.5538939692748,52.47448444525602 L227.8161945083674,315.89849162174784 L318.53594586813847,355.03117250641657 L409.4461060307252,67.52551555474398 Z" fill="url(#ray)"/><path d="M383.0,60.0 L368.6,360.0 L415.4,360.0 L401.0,60.0 Z" fill="url(#ray)"/><path d="M379.14497450367617,65.5451167245482 L477.40086352130504,349.8821355479075 L544.246996102189,321.0475285802569 L404.85502549632383,54.454883275451806 Z" fill="url(#ray)"/><path d="M378.96140888049405,73.82009918988793 L576.3117555611992,301.80474925432867 L644.11242938263,229.94023346691148 L405.03859111950595,46.17990081011207 Z" fill="url(#ray)"/><path d="M388.921818710069,68.45723358707318 L665.9045148819519,184.59485032409088 L681.9110575895932,140.61723567131037 L395.078181289931,51.542766412926824 Z" fill="url(#ray)"/></g><path d="M0,110 L86,40 L156,104 L240,26 L330,106 L410,52 L480,110 L480,160 L0,160 Z" fill="url(#peakA)"/><path d="M240,26 L286,74 L330,106 L262,116 L184,102 Z" fill="#FFFFFF"/><path d="M86,40 L124,80 L156,104 L98,112 L46,100 Z" fill="#FFFFFF" opacity="0.9"/><g opacity="0.9"><ellipse cx="66" cy="52" rx="30.6" ry="15.3" fill="#FFFFFF"/><circle cx="51.6" cy="48.4" r="11.700000000000001" fill="#FFFFFF"/><circle cx="69.6" cy="42.1" r="14.4" fill="#FFFFFF"/><circle cx="85.8" cy="49.3" r="10.8" fill="#FFFFFF"/></g><g opacity="0.85"><ellipse cx="400" cy="40" rx="27.200000000000003" ry="13.600000000000001" fill="#FFFFFF"/><circle cx="387.2" cy="36.8" r="10.4" fill="#FFFFFF"/><circle cx="403.2" cy="31.2" r="12.8" fill="#FFFFFF"/><circle cx="417.6" cy="37.6" r="9.600000000000001" fill="#FFFFFF"/></g><g opacity="0.6"><ellipse cx="300" cy="92" rx="20.4" ry="10.2" fill="#FFFFFF"/><circle cx="290.4" cy="89.6" r="7.8" fill="#FFFFFF"/><circle cx="302.4" cy="85.4" r="9.6" fill="#FFFFFF"/><circle cx="313.2" cy="90.2" r="7.199999999999999" fill="#FFFFFF"/></g><path d="M0,300 Q130,264 270,300 Q390,330 480,292 L480,620 L0,620 Z" fill="url(#hazeA)" opacity="0.30"/><path d="M0,440 Q160,410 320,442 Q420,462 480,436 L480,640 L0,640 Z" fill="url(#hazeB)" opacity="0.26"/><path d="M0,630 Q120,596 250,628 Q370,658 480,624 L480,854 L0,854 Z" fill="url(#groundA)"/><path d="M0,706 Q140,676 280,708 Q390,732 480,700 L480,854 L0,854 Z" fill="url(#groundB)"/><rect x="57.3" y="771.0" width="5.4" height="10.8" fill="#5E3A20"/><path d="M60,744.0 L76.2,771.0 L43.8,771.0 Z" fill="#4E9E3E"/><path d="M60,729.6 L72.312,756.6 L47.688,756.6 Z" fill="#2E7A1A"/><path d="M60,715.2 L68.1,742.2 L51.9,742.2 Z" fill="#4E9E3E"/><rect x="427.0" y="764.0" width="6.0" height="12.0" fill="#5E3A20"/><path d="M430,734.0 L448.0,764.0 L412.0,764.0 Z" fill="#4E9E3E"/><path d="M430,718.0 L443.68,748.0 L416.32,748.0 Z" fill="#2E7A1A"/><path d="M430,702.0 L439.0,732.0 L421.0,732.0 Z" fill="#4E9E3E"/><ellipse cx="150" cy="800" rx="67.2" ry="38.4" fill="url(#leaf)"/><ellipse cx="134.4" cy="789.2" rx="33.6" ry="18.0" fill="url(#leafhi)" opacity="0.9"/><ellipse cx="330" cy="812" rx="72.8" ry="41.6" fill="url(#leaf)"/><ellipse cx="313.1" cy="800.3" rx="36.4" ry="19.5" fill="url(#leafhi)" opacity="0.9"/><g transform="translate(240,836) rotate(0)"><path d="M-20,8.0 L-15.0,-11.0 L-2.0,-20 L14.399999999999999,-12.4 L20,7.0 L7.0,15.0 L-10.0,16.0 Z" fill="url(#rock)"/><path d="M-15.0,-11.0 L-2.0,-20 L4.0,-6.0 L-8.0,2.0 Z" fill="#FFFFFF" opacity="0.16"/></g><g transform="translate(96,840) rotate(0)"><path d="M-14,5.6000000000000005 L-10.5,-7.700000000000001 L-1.4000000000000001,-14 L10.08,-8.68 L14,4.8999999999999995 L4.8999999999999995,10.5 L-7.0,11.200000000000001 Z" fill="url(#rock)"/><path d="M-10.5,-7.700000000000001 L-1.4000000000000001,-14 L2.8000000000000003,-4.2 L-5.6000000000000005,1.4000000000000001 Z" fill="#FFFFFF" opacity="0.16"/></g><path d="M0,90 L44,96 L46,854 L0,854 Z" fill="url(#chuteA)"/><ellipse cx="18" cy="485" rx="10" ry="5" fill="#4E9E3E" opacity="0.5"/><ellipse cx="26" cy="459" rx="13" ry="7" fill="#4E9E3E" opacity="0.5"/><ellipse cx="4" cy="425" rx="10" ry="7" fill="#4E9E3E" opacity="0.5"/><ellipse cx="23" cy="415" rx="13" ry="7" fill="#4E9E3E" opacity="0.5"/><ellipse cx="20" cy="234" rx="13" ry="8" fill="#4E9E3E" opacity="0.5"/><ellipse cx="36" cy="317" rx="15" ry="6" fill="#4E9E3E" opacity="0.5"/><ellipse cx="38" cy="525" rx="12" ry="5" fill="#4E9E3E" opacity="0.5"/><ellipse cx="6" cy="678" rx="14" ry="7" fill="#4E9E3E" opacity="0.5"/><path d="M0,86 L46,92 L46,104 L0,98 Z" fill="#FFFFFF" opacity="0.30"/><g transform="translate(-10,-8) rotate(52)"><path d="M0,0 Q120.0,-24.0 240,0" stroke="url(#leafhi)" stroke-width="4" fill="none"/><ellipse cx="30.0" cy="-14.932346994720316" rx="17.776603565143233" ry="8.532769711268752" fill="url(#leaf)" transform="rotate(-32 30.0 0)"/><ellipse cx="30.0" cy="14.932346994720316" rx="17.776603565143233" ry="8.532769711268752" fill="url(#leafhi)" transform="rotate(32 30.0 0)"/><ellipse cx="60.0" cy="-24.742909063081196" rx="29.45584412271571" ry="14.13880517890354" fill="url(#leaf)" transform="rotate(-32 60.0 0)"/><ellipse cx="60.0" cy="24.742909063081196" rx="29.45584412271571" ry="14.13880517890354" fill="url(#leafhi)" transform="rotate(32 60.0 0)"/><ellipse cx="90.0" cy="-31.29811706314131" rx="37.25966317040632" ry="17.884638321795034" fill="url(#leaf)" transform="rotate(-32 90.0 0)"/><ellipse cx="90.0" cy="31.29811706314131" rx="37.25966317040632" ry="17.884638321795034" fill="url(#leafhi)" transform="rotate(32 90.0 0)"/><ellipse cx="120.0" cy="-33.6" rx="40.0" ry="19.2" fill="url(#leaf)" transform="rotate(-32 120.0 0)"/><ellipse cx="120.0" cy="33.6" rx="40.0" ry="19.2" fill="url(#leafhi)" transform="rotate(32 120.0 0)"/><ellipse cx="150.0" cy="-31.29811706314131" rx="37.25966317040632" ry="17.884638321795034" fill="url(#leaf)" transform="rotate(-32 150.0 0)"/><ellipse cx="150.0" cy="31.29811706314131" rx="37.25966317040632" ry="17.884638321795034" fill="url(#leafhi)" transform="rotate(32 150.0 0)"/><ellipse cx="180.0" cy="-24.7429090630812" rx="29.455844122715714" ry="14.138805178903542" fill="url(#leaf)" transform="rotate(-32 180.0 0)"/><ellipse cx="180.0" cy="24.7429090630812" rx="29.455844122715714" ry="14.138805178903542" fill="url(#leafhi)" transform="rotate(32 180.0 0)"/><ellipse cx="210.0" cy="-14.932346994720318" rx="17.776603565143237" ry="8.532769711268754" fill="url(#leaf)" transform="rotate(-32 210.0 0)"/><ellipse cx="210.0" cy="14.932346994720318" rx="17.776603565143237" ry="8.532769711268754" fill="url(#leafhi)" transform="rotate(32 210.0 0)"/></g><g transform="translate(492,-12) rotate(128)"><path d="M0,0 Q120.0,-24.0 240,0" stroke="url(#leafhi)" stroke-width="4" fill="none"/><ellipse cx="30.0" cy="-14.932346994720316" rx="17.776603565143233" ry="8.532769711268752" fill="url(#leaf)" transform="rotate(-32 30.0 0)"/><ellipse cx="30.0" cy="14.932346994720316" rx="17.776603565143233" ry="8.532769711268752" fill="url(#leafhi)" transform="rotate(32 30.0 0)"/><ellipse cx="60.0" cy="-24.742909063081196" rx="29.45584412271571" ry="14.13880517890354" fill="url(#leaf)" transform="rotate(-32 60.0 0)"/><ellipse cx="60.0" cy="24.742909063081196" rx="29.45584412271571" ry="14.13880517890354" fill="url(#leafhi)" transform="rotate(32 60.0 0)"/><ellipse cx="90.0" cy="-31.29811706314131" rx="37.25966317040632" ry="17.884638321795034" fill="url(#leaf)" transform="rotate(-32 90.0 0)"/><ellipse cx="90.0" cy="31.29811706314131" rx="37.25966317040632" ry="17.884638321795034" fill="url(#leafhi)" transform="rotate(32 90.0 0)"/><ellipse cx="120.0" cy="-33.6" rx="40.0" ry="19.2" fill="url(#leaf)" transform="rotate(-32 120.0 0)"/><ellipse cx="120.0" cy="33.6" rx="40.0" ry="19.2" fill="url(#leafhi)" transform="rotate(32 120.0 0)"/><ellipse cx="150.0" cy="-31.29811706314131" rx="37.25966317040632" ry="17.884638321795034" fill="url(#leaf)" transform="rotate(-32 150.0 0)"/><ellipse cx="150.0" cy="31.29811706314131" rx="37.25966317040632" ry="17.884638321795034" fill="url(#leafhi)" transform="rotate(32 150.0 0)"/><ellipse cx="180.0" cy="-24.7429090630812" rx="29.455844122715714" ry="14.138805178903542" fill="url(#leaf)" transform="rotate(-32 180.0 0)"/><ellipse cx="180.0" cy="24.7429090630812" rx="29.455844122715714" ry="14.138805178903542" fill="url(#leafhi)" transform="rotate(32 180.0 0)"/><ellipse cx="210.0" cy="-14.932346994720318" rx="17.776603565143237" ry="8.532769711268754" fill="url(#leaf)" transform="rotate(-32 210.0 0)"/><ellipse cx="210.0" cy="14.932346994720318" rx="17.776603565143237" ry="8.532769711268754" fill="url(#leafhi)" transform="rotate(32 210.0 0)"/></g><g transform="translate(-12,866) rotate(-54)"><path d="M0,0 Q100.0,-20.0 200,0" stroke="url(#leafhi)" stroke-width="4" fill="none"/><ellipse cx="25.0" cy="-13.003622495600263" rx="15.480502970952694" ry="7.430641426057293" fill="url(#leaf)" transform="rotate(-32 25.0 0)"/><ellipse cx="25.0" cy="13.003622495600263" rx="15.480502970952694" ry="7.430641426057293" fill="url(#leafhi)" transform="rotate(32 25.0 0)"/><ellipse cx="50.0" cy="-21.179090885900994" rx="25.213203435596423" ry="12.102337649086282" fill="url(#leaf)" transform="rotate(-32 50.0 0)"/><ellipse cx="50.0" cy="21.179090885900994" rx="25.213203435596423" ry="12.102337649086282" fill="url(#leafhi)" transform="rotate(32 50.0 0)"/><ellipse cx="75.0" cy="-26.641764219284426" rx="31.716385975338603" ry="15.223865268162529" fill="url(#leaf)" transform="rotate(-32 75.0 0)"/><ellipse cx="75.0" cy="26.641764219284426" rx="31.716385975338603" ry="15.223865268162529" fill="url(#leafhi)" transform="rotate(32 75.0 0)"/><ellipse cx="100.0" cy="-28.56" rx="34.0" ry="16.32" fill="url(#leaf)" transform="rotate(-32 100.0 0)"/><ellipse cx="100.0" cy="28.56" rx="34.0" ry="16.32" fill="url(#leafhi)" transform="rotate(32 100.0 0)"/><ellipse cx="125.0" cy="-26.641764219284426" rx="31.716385975338603" ry="15.223865268162529" fill="url(#leaf)" transform="rotate(-32 125.0 0)"/><ellipse cx="125.0" cy="26.641764219284426" rx="31.716385975338603" ry="15.223865268162529" fill="url(#leafhi)" transform="rotate(32 125.0 0)"/><ellipse cx="150.0" cy="-21.179090885900997" rx="25.213203435596427" ry="12.102337649086284" fill="url(#leaf)" transform="rotate(-32 150.0 0)"/><ellipse cx="150.0" cy="21.179090885900997" rx="25.213203435596427" ry="12.102337649086284" fill="url(#leafhi)" transform="rotate(32 150.0 0)"/><ellipse cx="175.0" cy="-13.003622495600265" rx="15.480502970952697" ry="7.430641426057295" fill="url(#leaf)" transform="rotate(-32 175.0 0)"/><ellipse cx="175.0" cy="13.003622495600265" rx="15.480502970952697" ry="7.430641426057295" fill="url(#leafhi)" transform="rotate(32 175.0 0)"/></g><g transform="translate(494,870) rotate(-126)"><path d="M0,0 Q100.0,-20.0 200,0" stroke="url(#leafhi)" stroke-width="4" fill="none"/><ellipse cx="25.0" cy="-13.003622495600263" rx="15.480502970952694" ry="7.430641426057293" fill="url(#leaf)" transform="rotate(-32 25.0 0)"/><ellipse cx="25.0" cy="13.003622495600263" rx="15.480502970952694" ry="7.430641426057293" fill="url(#leafhi)" transform="rotate(32 25.0 0)"/><ellipse cx="50.0" cy="-21.179090885900994" rx="25.213203435596423" ry="12.102337649086282" fill="url(#leaf)" transform="rotate(-32 50.0 0)"/><ellipse cx="50.0" cy="21.179090885900994" rx="25.213203435596423" ry="12.102337649086282" fill="url(#leafhi)" transform="rotate(32 50.0 0)"/><ellipse cx="75.0" cy="-26.641764219284426" rx="31.716385975338603" ry="15.223865268162529" fill="url(#leaf)" transform="rotate(-32 75.0 0)"/><ellipse cx="75.0" cy="26.641764219284426" rx="31.716385975338603" ry="15.223865268162529" fill="url(#leafhi)" transform="rotate(32 75.0 0)"/><ellipse cx="100.0" cy="-28.56" rx="34.0" ry="16.32" fill="url(#leaf)" transform="rotate(-32 100.0 0)"/><ellipse cx="100.0" cy="28.56" rx="34.0" ry="16.32" fill="url(#leafhi)" transform="rotate(32 100.0 0)"/><ellipse cx="125.0" cy="-26.641764219284426" rx="31.716385975338603" ry="15.223865268162529" fill="url(#leaf)" transform="rotate(-32 125.0 0)"/><ellipse cx="125.0" cy="26.641764219284426" rx="31.716385975338603" ry="15.223865268162529" fill="url(#leafhi)" transform="rotate(32 125.0 0)"/><ellipse cx="150.0" cy="-21.179090885900997" rx="25.213203435596427" ry="12.102337649086284" fill="url(#leaf)" transform="rotate(-32 150.0 0)"/><ellipse cx="150.0" cy="21.179090885900997" rx="25.213203435596427" ry="12.102337649086284" fill="url(#leafhi)" transform="rotate(32 150.0 0)"/><ellipse cx="175.0" cy="-13.003622495600265" rx="15.480502970952697" ry="7.430641426057295" fill="url(#leaf)" transform="rotate(-32 175.0 0)"/><ellipse cx="175.0" cy="13.003622495600265" rx="15.480502970952697" ry="7.430641426057295" fill="url(#leafhi)" transform="rotate(32 175.0 0)"/></g><ellipse cx="217.14218568471293" cy="478.04561771274354" rx="5.8" ry="2.3" fill="#8BD94A" opacity="0.50" transform="rotate(106 217.14218568471293 478.04561771274354)"/><ellipse cx="88.63696505034078" cy="437.16997774170187" rx="4.9" ry="2.7" fill="#8BD94A" opacity="0.34" transform="rotate(55 88.63696505034078 437.16997774170187)"/><ellipse cx="43.521857996082915" cy="691.4364323495696" rx="5.1" ry="1.7" fill="#8BD94A" opacity="0.69" transform="rotate(174 43.521857996082915 691.4364323495696)"/><ellipse cx="313.8828160962434" cy="525.6905497100994" rx="3.5" ry="1.6" fill="#8BD94A" opacity="0.51" transform="rotate(11 313.8828160962434 525.6905497100994)"/><ellipse cx="91.29996614300597" cy="206.6193336700934" rx="3.1" ry="2.2" fill="#8BD94A" opacity="0.48" transform="rotate(152 91.29996614300597 206.6193336700934)"/><ellipse cx="249.1795750867568" cy="546.8091185629772" rx="4.5" ry="2.5" fill="#8BD94A" opacity="0.48" transform="rotate(50 249.1795750867568 546.8091185629772)"/><ellipse cx="478.8749762222805" cy="850.320661974394" rx="5.5" ry="2.6" fill="#8BD94A" opacity="0.43" transform="rotate(41 478.8749762222805 850.320661974394)"/><ellipse cx="138.73917471081703" cy="59.970868624176724" rx="5.3" ry="2.2" fill="#8BD94A" opacity="0.64" transform="rotate(70 138.73917471081703 59.970868624176724)"/><ellipse cx="459.86034399351047" cy="723.602546400595" rx="3.0" ry="1.9" fill="#8BD94A" opacity="0.66" transform="rotate(85 459.86034399351047 723.602546400595)"/><ellipse cx="470.57229176366025" cy="339.4004274197061" rx="3.2" ry="2.5" fill="#8BD94A" opacity="0.61" transform="rotate(49 470.57229176366025 339.4004274197061)"/><ellipse cx="41.829215209041664" cy="284.0281241456991" rx="5.9" ry="2.7" fill="#8BD94A" opacity="0.35" transform="rotate(44 41.829215209041664 284.0281241456991)"/><ellipse cx="48.50222829921844" cy="51.1489661116795" rx="5.4" ry="1.8" fill="#8BD94A" opacity="0.52" transform="rotate(81 48.50222829921844 51.1489661116795)"/><ellipse cx="91.5285193393757" cy="625.0376602200552" rx="3.4" ry="2.5" fill="#8BD94A" opacity="0.35" transform="rotate(76 91.5285193393757 625.0376602200552)"/><ellipse cx="102.17552304436293" cy="230.40491052077095" rx="5.9" ry="2.7" fill="#8BD94A" opacity="0.42" transform="rotate(159 102.17552304436293 230.40491052077095)"/><ellipse cx="101.14090628853091" cy="336.7105400595344" rx="5.6" ry="2.5" fill="#8BD94A" opacity="0.34" transform="rotate(178 101.14090628853091 336.7105400595344)"/><ellipse cx="102.35681691721084" cy="220.56903441382386" rx="5.3" ry="2.1" fill="#8BD94A" opacity="0.42" transform="rotate(13 102.35681691721084 220.56903441382386)"/><ellipse cx="43.256243021726505" cy="497.65551763508944" rx="3.7" ry="2.4" fill="#8BD94A" opacity="0.45" transform="rotate(82 43.256243021726505 497.65551763508944)"/><ellipse cx="460.38464279391025" cy="413.1007514062135" rx="4.7" ry="2.8" fill="#8BD94A" opacity="0.37" transform="rotate(28 460.38464279391025 413.1007514062135)"/><ellipse cx="436.04339085239184" cy="698.4028648385396" rx="3.7" ry="1.9" fill="#8BD94A" opacity="0.60" transform="rotate(169 436.04339085239184 698.4028648385396)"/><ellipse cx="94.36310179343458" cy="811.4160178715831" rx="5.6" ry="2.4" fill="#8BD94A" opacity="0.47" transform="rotate(19 94.36310179343458 811.4160178715831)"/><ellipse cx="18.574306413015673" cy="822.1300107830954" rx="3.7" ry="2.6" fill="#8BD94A" opacity="0.40" transform="rotate(148 18.574306413015673 822.1300107830954)"/><ellipse cx="286.30382713436904" cy="250.59378589796552" rx="3.5" ry="2.6" fill="#8BD94A" opacity="0.33" transform="rotate(41 286.30382713436904 250.59378589796552)"/><ellipse cx="268.4958445555243" cy="727.9494935419667" rx="4.8" ry="2.0" fill="#8BD94A" opacity="0.67" transform="rotate(37 268.4958445555243 727.9494935419667)"/><ellipse cx="7.95590067799445" cy="229.89161453663021" rx="4.3" ry="1.7" fill="#8BD94A" opacity="0.37" transform="rotate(66 7.95590067799445 229.89161453663021)"/><ellipse cx="274.6413229932729" cy="112.36805661568094" rx="4.1" ry="2.8" fill="#8BD94A" opacity="0.69" transform="rotate(118 274.6413229932729 112.36805661568094)"/><ellipse cx="331.7863637993537" cy="499.1119890258728" rx="3.4" ry="1.6" fill="#8BD94A" opacity="0.31" transform="rotate(164 331.7863637993537 499.1119890258728)"/></svg>