<svg xmlns="http://www.w3.org/2000/svg" width="960" height="1708" viewBox="0 0 480 854"><defs><linearGradient id="sky" x1="0" y1="0" x2="0" y2="1"><stop offset="0" stop-color="#6FBEDE"/><stop offset="0.42" stop-color="#9FD4E8"/><stop offset="0.75" stop-color="#D8DCC4"/><stop offset="1" stop-color="#EFE0BC"/></linearGradient><linearGradient id="hillfar" x1="0" y1="0" x2="0" y2="1"><stop offset="0" stop-color="#BBA786"/><stop offset="1" stop-color="#93795A"/></linearGradient><linearGradient id="hazeA" x1="0" y1="0" x2="0" y2="1"><stop offset="0" stop-color="#B49A78"/><stop offset="1" stop-color="#8E7656"/></linearGradient><linearGradient id="hazeB" x1="0" y1="0" x2="0" y2="1"><stop offset="0" stop-color="#C6AE8A"/><stop offset="1" stop-color="#9A8262"/></linearGradient><linearGradient id="groundA" x1="0" y1="0" x2="0" y2="1"><stop offset="0" stop-color="#9A8256"/><stop offset="1" stop-color="#6E5A38"/></linearGradient><linearGradient id="groundB" x1="0" y1="0" x2="0" y2="1"><stop offset="0" stop-color="#7E6842"/><stop offset="1" stop-color="#544326"/></linearGradient><linearGradient id="leaf" x1="0" y1="0" x2="0" y2="1"><stop offset="0" stop-color="#5E7D46"/><stop offset="1" stop-color="#3E5A2E"/></linearGradient><linearGradient id="leafhi" x1="0" y1="0" x2="0" y2="1"><stop offset="0" stop-color="#9CB86A"/><stop offset="1" stop-color="#6E8C48"/></linearGradient><linearGradient id="chuteA" x1="0" y1="0" x2="0" y2="1"><stop offset="0" stop-color="#A08862"/><stop offset="1" stop-color="#6A5638"/></linearGradient><radialGradient id="sundisc" cx="0.5" cy="0.5" r="0.5"><stop offset="0" stop-color="#FFFBE0"/><stop offset="0.6" stop-color="#FFEEA8"/><stop offset="1" stop-color="#FFD98A"/></radialGradient><radialGradient id="sunglow" cx="0.5" cy="0.5" r="0.5"><stop offset="0" stop-color="#FFE9A8" stop-opacity="0.85"/><stop offset="0.5" stop-color="#FFE9A8" stop-opacity="0.35"/><stop offset="1" stop-color="#FFE9A8" stop-opacity="0.0"/></radialGradient><linearGradient id="ray" x1="0" y1="0" x2="0" y2="1"><stop offset="0" stop-color="#FFF6CE" stop-opacity="0.5"/><stop offset="1" stop-color="#FFF6CE" stop-opacity="0.0"/></linearGradient><linearGradient id="rock" x1="0" y1="0" x2="0" y2="1"><stop offset="0" stop-color="#C9AE86"/><stop offset="1" stop-color="#8A6B4A"/></linearGradient><linearGradient id="rockdark" x1="0" y1="0" x2="0" y2="1"><stop offset="0" stop-color="#8A7256"/><stop offset="1" stop-color="#4E3E2C"/></linearGradient><linearGradient id="cliffA" x1="0" y1="0" x2="0" y2="1"><stop offset="0" stop-color="#B49470"/><stop offset="1" stop-color="#7E6448"/></linearGradient><linearGradient id="cliffB" x1="0" y1="0" x2="0" y2="1"><stop offset="0" stop-color="#8E7454"/><stop offset="1" stop-color="#5E4A32"/></linearGradient><linearGradient id="peakA" x1="0" y1="0" x2="0" y2="1"><stop offset="0" stop-color="#CFE0EC"/><stop offset="1" stop-color="#8FB0C8"/></linearGradient><linearGradient id="water" x1="0" y1="0" x2="0" y2="1"><stop offset="0" stop-color="#EAFBFF"/><stop offset="0.35" stop-color="#9FE6F2"/><stop offset="1" stop-color="#37AED2"/></linearGradient><linearGradient id="volc" x1="0" y1="0" x2="0" y2="1"><stop offset="0" stop-color="#6E3A2A"/><stop offset="1" stop-color="#2E1812"/></linearGradient><radialGradient id="lavaglow" cx="0.5" cy="0.5" r="0.5"><stop offset="0" stop-color="#FF8A3D" stop-opacity="0.75"/><stop offset="1" stop-color="#FF8A3D" stop-opacity="0.0"/></radialGradient><linearGradient id="lava" x1="0" y1="0" x2="0" y2="1"><stop offset="0" stop-color="#FFD24A"/><stop offset="1" stop-color="#FF5A2D"/></linearGradient><linearGradient id="mudA" x1="0" y1="0" x2="0" y2="1"><stop offset="0" stop-color="#8A5E34"/><stop offset="1" stop-color="#5E3C1E"/></linearGradient><linearGradient id="mudB" x1="0" y1="0" x2="0" y2="1"><stop offset="0" stop-color="#6E4826"/><stop offset="1" stop-color="#432B12"/></linearGradient><linearGradient id="sandwall" x1="0" y1="0" x2="0" y2="1"><stop offset="0" stop-color="#F2C86E"/><stop offset="1" stop-color="#D89A34"/></linearGradient><linearGradient id="cact" x1="0" y1="0" x2="0" y2="1"><stop offset="0" stop-color="#6FB05A"/><stop offset="1" stop-color="#3E7A34"/></linearGradient></defs><rect width="480" height="854" fill="url(#sky)"/><circle cx="376" cy="64" r="140.8" fill="url(#sunglow)"/><circle cx="376" cy="64" r="44" fill="url(#sundisc)"/><circle cx="376" cy="64" r="25.52" fill="#FFF3C0"/><g opacity="0.3"><path d="M372.921818710069,55.542766412926824 L86.08894241040684,144.61723567131037 L102.09548511804815,188.59485032409088 L379.078181289931,72.45723358707318 Z" fill="url(#ray)"/><path d="M366.39261706983774,53.81676901797732 L132.8087119096635,243.3960908073611 L182.76710314650728,296.3488919138791 L385.60738293016226,74.18323098202268 Z" fill="url(#ray)"/><path d="M358.5538939692748,56.47448444525602 L211.8161945083674,319.89849162174784 L302.53594586813847,359.03117250641657 L393.4461060307252,71.52551555474398 Z" fill="url(#ray)"/><path d="M367.0,64.0 L352.6,364.0 L399.4,364.0 L385.0,64.0 Z" fill="url(#ray)"/><path d="M363.14497450367617,69.5451167245482 L461.40086352130504,353.8821355479075 L528.246996102189,325.0475285802569 L388.85502549632383,58.454883275451806 Z" fill="url(#ray)"/><path d="M362.96140888049405,77.82009918988793 L560.3117555611992,305.80474925432867 L628.11242938263,233.94023346691148 L389.03859111950595,50.17990081011207 Z" fill="url(#ray)"/><path d="M372.921818710069,72.45723358707318 L649.9045148819519,188.59485032409088 L665.9110575895932,144.61723567131037 L379.078181289931,55.542766412926824 Z" fill="url(#ray)"/></g><path d="M0,70 L92,26 L176,74 L268,32 L360,80 L440,44 L480,72 L480,150 L0,150 Z" fill="url(#hillfar)" opacity="0.6"/><path d="M0,84 L110,44 L188,92 L300,50 L392,96 L480,60 L480,176 L0,176 Z" fill="url(#cliffA)"/><path d="M110,44 L188,92 L300,50 L268,120 L150,132 Z" fill="#C4A276" opacity="0.55"/><path d="M0,140 L120,112 L240,148 L360,116 L480,150 L480,176 L0,176 Z" fill="url(#cliffB)"/><g transform="translate(84,148) rotate(20)"><path d="M-15,6.0 L-11.25,-8.25 L-1.5,-15 L10.799999999999999,-9.3 L15,5.25 L5.25,11.25 L-7.5,12.0 Z" fill="url(#rockdark)"/><path d="M-11.25,-8.25 L-1.5,-15 L3.0,-4.5 L-6.0,1.5 Z" fill="#FFFFFF" opacity="0.16"/></g><g transform="translate(196,158) rotate(60)"><path d="M-11,4.4 L-8.25,-6.050000000000001 L-1.1,-11 L7.92,-6.82 L11,3.8499999999999996 L3.8499999999999996,8.25 L-5.5,8.8 Z" fill="url(#rockdark)"/><path d="M-8.25,-6.050000000000001 L-1.1,-11 L2.2,-3.3 L-4.4,1.1 Z" fill="#FFFFFF" opacity="0.16"/></g><g transform="translate(322,146) rotate(10)"><path d="M-14,5.6000000000000005 L-10.5,-7.700000000000001 L-1.4000000000000001,-14 L10.08,-8.68 L14,4.8999999999999995 L4.8999999999999995,10.5 L-7.0,11.200000000000001 Z" fill="url(#rockdark)"/><path d="M-10.5,-7.700000000000001 L-1.4000000000000001,-14 L2.8000000000000003,-4.2 L-5.6000000000000005,1.4000000000000001 Z" fill="#FFFFFF" opacity="0.16"/></g><g transform="translate(426,160) rotate(40)"><path d="M-9,3.6 L-6.75,-4.95 L-0.9,-9 L6.4799999999999995,-5.58 L9,3.15 L3.15,6.75 L-4.5,7.2 Z" fill="url(#rockdark)"/><path d="M-6.75,-4.95 L-0.9,-9 L1.8,-2.6999999999999997 L-3.6,0.9 Z" fill="#FFFFFF" opacity="0.16"/></g><path d="M0,320 L140,290 L300,326 L480,296 L480,620 L0,620 Z" fill="url(#hazeA)" opacity="0.28"/><path d="M0,450 L160,424 L340,456 L480,430 L480,640 L0,640 Z" fill="url(#hazeB)" opacity="0.24"/><path d="M0,648 L110,616 L250,652 L380,620 L480,650 L480,854 L0,854 Z" fill="url(#groundA)"/><path d="M0,724 L140,698 L300,730 L480,702 L480,854 L0,854 Z" fill="url(#groundB)"/><g transform="translate(74,792) rotate(12)"><path d="M-30,12.0 L-22.5,-16.5 L-3.0,-30 L21.599999999999998,-18.6 L30,10.5 L10.5,22.5 L-15.0,24.0 Z" fill="url(#rock)"/><path d="M-22.5,-16.5 L-3.0,-30 L6.0,-9.0 L-12.0,3.0 Z" fill="#FFFFFF" opacity="0.16"/></g><g transform="translate(146,826) rotate(50)"><path d="M-20,8.0 L-15.0,-11.0 L-2.0,-20 L14.399999999999999,-12.4 L20,7.0 L7.0,15.0 L-10.0,16.0 Z" fill="url(#rock)"/><path d="M-15.0,-11.0 L-2.0,-20 L4.0,-6.0 L-8.0,2.0 Z" fill="#FFFFFF" opacity="0.16"/></g><g transform="translate(356,786) rotate(70)"><path d="M-34,13.600000000000001 L-25.5,-18.700000000000003 L-3.4000000000000004,-34 L24.48,-21.08 L34,11.899999999999999 L11.899999999999999,25.5 L-17.0,27.200000000000003 Z" fill="url(#rock)"/><path d="M-25.5,-18.700000000000003 L-3.4000000000000004,-34 L6.800000000000001,-10.2 L-13.600000000000001,3.4000000000000004 Z" fill="#FFFFFF" opacity="0.16"/></g><g transform="translate(430,824) rotate(25)"><path d="M-22,8.8 L-16.5,-12.100000000000001 L-2.2,-22 L15.84,-13.64 L22,7.699999999999999 L7.699999999999999,16.5 L-11.0,17.6 Z" fill="url(#rock)"/><path d="M-16.5,-12.100000000000001 L-2.2,-22 L4.4,-6.6 L-8.8,2.2 Z" fill="#FFFFFF" opacity="0.16"/></g><g transform="translate(250,846) rotate(0)"><path d="M-26,10.4 L-19.5,-14.3 L-2.6,-26 L18.72,-16.12 L26,9.1 L9.1,19.5 L-13.0,20.8 Z" fill="url(#rock)"/><path d="M-19.5,-14.3 L-2.6,-26 L5.2,-7.8 L-10.4,2.6 Z" fill="#FFFFFF" opacity="0.16"/></g><rect x="109.6" y="754.0" width="4.800000000000001" height="9.600000000000001" fill="#5E3A20"/><path d="M112,730.0 L126.4,754.0 L97.6,754.0 Z" fill="#7D9C58"/><path d="M112,717.2 L122.944,741.2 L101.056,741.2 Z" fill="#5E7D46"/><path d="M112,704.4 L119.2,728.4 L104.8,728.4 Z" fill="#7D9C58"/><rect x="395.3" y="745.0" width="5.4" height="10.8" fill="#5E3A20"/><path d="M398,718.0 L414.2,745.0 L381.8,745.0 Z" fill="#7D9C58"/><path d="M398,703.6 L410.312,730.6 L385.688,730.6 Z" fill="#5E7D46"/><path d="M398,689.2 L406.1,716.2 L389.9,716.2 Z" fill="#7D9C58"/><path d="M0,90 L44,96 L46,854 L0,854 Z" fill="url(#chuteA)"/><g transform="translate(20.627959325340335,339.94083058689125) rotate(32.42037795481413)"><path d="M-7.217674679619835,2.887069871847934 L-5.4132560097148765,-3.9697210737909097 L-0.7217674679619835,-7.217674679619835 L5.196725769326281,-4.474958301364298 L7.217674679619835,2.526186137866942 L2.526186137866942,5.4132560097148765 L-3.6088373398099174,5.774139743695868 Z" fill="url(#rockdark)"/><path d="M-5.4132560097148765,-3.9697210737909097 L-0.7217674679619835,-7.217674679619835 L1.443534935923967,-2.1653024038859505 L-2.887069871847934,0.7217674679619835 Z" fill="#FFFFFF" opacity="0.16"/></g><g transform="translate(9.833936022665089,268.3261169795636) rotate(5.856575198742241)"><path d="M-10.982407404747438,4.392962961898975 L-8.236805553560579,-6.040324072611091 L-1.0982407404747438,-10.982407404747438 L7.907333331418155,-6.809092590943411 L10.982407404747438,3.843842591661603 L3.843842591661603,8.236805553560579 L-5.491203702373719,8.78592592379795 Z" fill="url(#rockdark)"/><path d="M-8.236805553560579,-6.040324072611091 L-1.0982407404747438,-10.982407404747438 L2.1964814809494877,-3.294722221424231 L-4.392962961898975,1.0982407404747438 Z" fill="#FFFFFF" opacity="0.16"/></g><g transform="translate(5.757554873357982,660.8337112591262) rotate(1.0908788527134206)"><path d="M-9.370359100128928,3.7481436400515715 L-7.0277693250966955,-5.153697505070911 L-0.9370359100128929,-9.370359100128928 L6.7466585520928275,-5.809622642079935 L9.370359100128928,3.2796256850451244 L3.2796256850451244,7.0277693250966955 L-4.685179550064464,7.496287280103143 Z" fill="url(#rockdark)"/><path d="M-7.0277693250966955,-5.153697505070911 L-0.9370359100128929,-9.370359100128928 L1.8740718200257858,-2.811107730038678 L-3.7481436400515715,0.9370359100128929 Z" fill="#FFFFFF" opacity="0.16"/></g><g transform="translate(17.12919992230468,270.8597586996907) rotate(77.24873745183132)"><path d="M-8.22260915266697,3.289043661066788 L-6.166956864500227,-4.5224350339668336 L-0.822260915266697,-8.22260915266697 L5.920278589920217,-5.098017674653521 L8.22260915266697,2.877913203433439 L2.877913203433439,6.166956864500227 L-4.111304576333485,6.578087322133576 Z" fill="url(#rockdark)"/><path d="M-6.166956864500227,-4.5224350339668336 L-0.822260915266697,-8.22260915266697 L1.644521830533394,-2.466782745800091 L-3.289043661066788,0.822260915266697 Z" fill="#FFFFFF" opacity="0.16"/></g><g transform="translate(36.08960752077785,539.3413266602814) rotate(66.50661795950737)"><path d="M-11.456755712846245,4.582702285138498 L-8.592566784634684,-6.3012156420654355 L-1.1456755712846245,-11.456755712846245 L8.248864113249297,-7.1031885419646725 L11.456755712846245,4.009864499496186 L4.009864499496186,8.592566784634684 L-5.728377856423123,9.165404570276996 Z" fill="url(#rockdark)"/><path d="M-8.592566784634684,-6.3012156420654355 L-1.1456755712846245,-11.456755712846245 L2.291351142569249,-3.4370267138538737 L-4.582702285138498,1.1456755712846245 Z" fill="#FFFFFF" opacity="0.16"/></g><g transform="translate(6.132916224106684,671.0566061805226) rotate(70.34350899831075)"><path d="M-6.301979369743262,2.520791747897305 L-4.726484527307447,-3.4660886533587942 L-0.6301979369743262,-6.301979369743262 L4.537425146215148,-3.9072272092408222 L6.301979369743262,2.2056927794101417 L2.2056927794101417,4.726484527307447 L-3.150989684871631,5.04158349579461 Z" fill="url(#rockdark)"/><path d="M-4.726484527307447,-3.4660886533587942 L-0.6301979369743262,-6.301979369743262 L1.2603958739486525,-1.8905938109229785 L-2.520791747897305,0.6301979369743262 Z" fill="#FFFFFF" opacity="0.16"/></g><g transform="translate(4.978066433052593,688.5857268102689) rotate(17.248282054619377)"><path d="M-9.114449039493287,3.645779615797315 L-6.8358367796199655,-5.012946971721308 L-0.9114449039493288,-9.114449039493287 L6.562403308435167,-5.650958404485838 L9.114449039493287,3.1900571638226505 L3.1900571638226505,6.8358367796199655 L-4.557224519746644,7.29155923159463 Z" fill="url(#rockdark)"/><path d="M-6.8358367796199655,-5.012946971721308 L-0.9114449039493288,-9.114449039493287 L1.8228898078986575,-2.734334711847986 L-3.645779615797315,0.9114449039493288 Z" fill="#FFFFFF" opacity="0.16"/></g><g transform="translate(20.18238708890762,301.2649119465217) rotate(16.542242706672397)"><path d="M-8.146245312646723,3.2584981250586895 L-6.109683984485042,-4.480434921955698 L-0.8146245312646724,-8.146245312646723 L5.865296625105641,-5.050672093840968 L8.146245312646723,2.851185859426353 L2.851185859426353,6.109683984485042 L-4.073122656323362,6.516996250117379 Z" fill="url(#rockdark)"/><path d="M-6.109683984485042,-4.480434921955698 L-0.8146245312646724,-8.146245312646723 L1.6292490625293448,-2.443873593794017 L-3.2584981250586895,0.8146245312646724 Z" fill="#FFFFFF" opacity="0.16"/></g><g transform="translate(8.0332703506307,310.76619077582166) rotate(21.881193710119327)"><path d="M-8.921131825144691,3.5684527300578766 L-6.690848868858518,-4.90662250382958 L-0.8921131825144691,-8.921131825144691 L6.423214914104177,-5.531101731589708 L8.921131825144691,3.122396138800642 L3.122396138800642,6.690848868858518 L-4.460565912572346,7.136905460115753 Z" fill="url(#rockdark)"/><path d="M-6.690848868858518,-4.90662250382958 L-0.8921131825144691,-8.921131825144691 L1.7842263650289383,-2.676339547543407 L-3.5684527300578766,0.8921131825144691 Z" fill="#FFFFFF" opacity="0.16"/></g><path d="M0,86 L46,92 L46,104 L0,98 Z" fill="#FFFFFF" opacity="0.30"/><path d="M0,0 L152,0 C120,44 60,66 0,74 Z" fill="url(#rockdark)"/><path d="M480,0 L330,0 C362,48 424,70 480,80 Z" fill="url(#rockdark)"/><path d="M0,854 L0,760 C58,772 108,808 132,854 Z" fill="url(#rockdark)"/><path d="M480,854 L480,770 C424,782 372,812 350,854 Z" fill="url(#rockdark)"/><ellipse cx="380.80324020559823" cy="701.9487521410467" rx="10.3" ry="1.4" fill="#F3DCA0" opacity="0.15"/><ellipse cx="318.15291018420845" cy="401.59713553303607" rx="13.4" ry="1.5" fill="#F3DCA0" opacity="0.34"/><ellipse cx="130.89508112254595" cy="684.8358226208635" rx="13.0" ry="1.6" fill="#F3DCA0" opacity="0.28"/><ellipse cx="327.38483581856565" cy="164.80908390253063" rx="11.1" ry="2.1" fill="#F3DCA0" opacity="0.22"/><ellipse cx="385.61534861343034" cy="585.5791593137766" rx="14.3" ry="1.5" fill="#F3DCA0" opacity="0.17"/><ellipse cx="384.13570550660444" cy="687.2834123515755" rx="9.9" ry="1.1" fill="#F3DCA0" opacity="0.20"/><ellipse cx="304.76104901937555" cy="248.67076178869962" rx="15.5" ry="1.8" fill="#F3DCA0" opacity="0.20"/><ellipse cx="314.59391681912837" cy="307.7641488585141" rx="15.3" ry="2.3" fill="#F3DCA0" opacity="0.28"/><ellipse cx="309.3944691539975" cy="596.01544123975" rx="13.9" ry="2.4" fill="#F3DCA0" opacity="0.16"/><ellipse cx="173.4606823142613" cy="513.8921432566201" rx="8.3" ry="1.8" fill="#F3DCA0" opacity="0.17"/><ellipse cx="422.4378443191638" cy="448.57475939432624" rx="6.3" ry="1.9" fill="#F3DCA0" opacity="0.23"/><ellipse cx="94.18758408954155" cy="413.11761529906744" rx="6.5" ry="1.3" fill="#F3DCA0" opacity="0.37"/><ellipse cx="335.14739700129223" cy="10.694384822172287" rx="13.6" ry="1.0" fill="#F3DCA0" opacity="0.23"/><ellipse cx="434.1301691699839" cy="529.7065299026673" rx="8.4" ry="1.5" fill="#F3DCA0" opacity="0.25"/><ellipse cx="60.880668206439736" cy="853.89632135182" rx="5.6" ry="1.6" fill="#F3DCA0" opacity="0.34"/><ellipse cx="190.92686210625726" cy="837.751394725072" rx="7.7" ry="2.4" fill="#F3DCA0" opacity="0.37"/><ellipse cx="321.7042131560148" cy="759.6437174303828" rx="9.9" ry="2.2" fill="#F3DCA0" opacity="0.35"/><ellipse cx="248.009599780157" cy="402.17405238119017" rx="12.8" ry="1.6" fill="#F3DCA0" opacity="0.17"/><ellipse cx="358.32762723033323" cy="227.01003817811517" rx="10.4" ry="2.1" fill="#F3DCA0" opacity="0.19"/><ellipse cx="10.49921228149751" cy="105.46499680333926" rx="11.5" ry="1.5" fill="#F3DCA0" opacity="0.21"/><ellipse cx="216.73595784702349" cy="792.1679313883868" rx="7.8" ry="1.6" fill="#F3DCA0" opacity="0.37"/><ellipse cx="293.84503657366486" cy="228.81862567754393" rx="10.2" ry="1.7" fill="#F3DCA0" opacity="0.19"/><ellipse cx="181.18949352496978" cy="261.04519416269807" rx="13.9" ry="1.5" fill="#F3DCA0" opacity="0.31"/><ellipse cx="465.96771924411627" cy="788.3089345470378" rx="9.1" ry="1.8" fill="#F3DCA0" opacity="0.23"/><ellipse cx="191.17515555029374" cy="416.75092764814946" rx="13.7" ry="2.3" fill="#F3DCA0" opacity="0.22"/><ellipse cx="2.9723082439326376" cy="383.75112210077214" rx="5.6" ry="1.0" fill="#F3DCA0" opacity="0.34"/></svg>