<svg xmlns="http://www.w3.org/2000/svg" width="960" height="1708" viewBox="0 0 480 854"><defs><linearGradient id="sky" x1="0" y1="0" x2="0" y2="1"><stop offset="0" stop-color="#5E93AE"/><stop offset="0.38" stop-color="#86B4C6"/><stop offset="0.72" stop-color="#B8CFC4"/><stop offset="1" stop-color="#D6D8B8"/></linearGradient><linearGradient id="hillfar" x1="0" y1="0" x2="0" y2="1"><stop offset="0" stop-color="#6E8A70"/><stop offset="1" stop-color="#4E6A52"/></linearGradient><linearGradient id="hazeA" x1="0" y1="0" x2="0" y2="1"><stop offset="0" stop-color="#8AA88E"/><stop offset="1" stop-color="#6E8A72"/></linearGradient><linearGradient id="hazeB" x1="0" y1="0" x2="0" y2="1"><stop offset="0" stop-color="#A8BC96"/><stop offset="1" stop-color="#7E9670"/></linearGradient><linearGradient id="groundA" x1="0" y1="0" x2="0" y2="1"><stop offset="0" stop-color="#6E5230"/><stop offset="1" stop-color="#4E3A1E"/></linearGradient><linearGradient id="groundB" x1="0" y1="0" x2="0" y2="1"><stop offset="0" stop-color="#4E3A1E"/><stop offset="1" stop-color="#33260F"/></linearGradient><linearGradient id="leaf" x1="0" y1="0" x2="0" y2="1"><stop offset="0" stop-color="#2E7A1A"/><stop offset="1" stop-color="#164A10"/></linearGradient><linearGradient id="leafhi" x1="0" y1="0" x2="0" y2="1"><stop offset="0" stop-color="#7ECA42"/><stop offset="1" stop-color="#2E8A1E"/></linearGradient><linearGradient id="chuteA" x1="0" y1="0" x2="0" y2="1"><stop offset="0" stop-color="#7A5230"/><stop offset="1" stop-color="#4E3218"/></linearGradient><radialGradient id="sundisc" cx="0.5" cy="0.5" r="0.5"><stop offset="0" stop-color="#FFFBE0"/><stop offset="0.6" stop-color="#FFEEA8"/><stop offset="1" stop-color="#FFD98A"/></radialGradient><radialGradient id="sunglow" cx="0.5" cy="0.5" r="0.5"><stop offset="0" stop-color="#FFE9A8" stop-opacity="0.85"/><stop offset="0.5" stop-color="#FFE9A8" stop-opacity="0.35"/><stop offset="1" stop-color="#FFE9A8" stop-opacity="0.0"/></radialGradient><linearGradient id="ray" x1="0" y1="0" x2="0" y2="1"><stop offset="0" stop-color="#FFF6CE" stop-opacity="0.5"/><stop offset="1" stop-color="#FFF6CE" stop-opacity="0.0"/></linearGradient><linearGradient id="rock" x1="0" y1="0" x2="0" y2="1"><stop offset="0" stop-color="#C9AE86"/><stop offset="1" stop-color="#8A6B4A"/></linearGradient><linearGradient id="rockdark" x1="0" y1="0" x2="0" y2="1"><stop offset="0" stop-color="#8A7256"/><stop offset="1" stop-color="#4E3E2C"/></linearGradient><linearGradient id="cliffA" x1="0" y1="0" x2="0" y2="1"><stop offset="0" stop-color="#B49470"/><stop offset="1" stop-color="#7E6448"/></linearGradient><linearGradient id="cliffB" x1="0" y1="0" x2="0" y2="1"><stop offset="0" stop-color="#8E7454"/><stop offset="1" stop-color="#5E4A32"/></linearGradient><linearGradient id="peakA" x1="0" y1="0" x2="0" y2="1"><stop offset="0" stop-color="#CFE0EC"/><stop offset="1" stop-color="#8FB0C8"/></linearGradient><linearGradient id="water" x1="0" y1="0" x2="0" y2="1"><stop offset="0" stop-color="#EAFBFF"/><stop offset="0.35" stop-color="#9FE6F2"/><stop offset="1" stop-color="#37AED2"/></linearGradient><linearGradient id="volc" x1="0" y1="0" x2="0" y2="1"><stop offset="0" stop-color="#6E3A2A"/><stop offset="1" stop-color="#2E1812"/></linearGradient><radialGradient id="lavaglow" cx="0.5" cy="0.5" r="0.5"><stop offset="0" stop-color="#FF8A3D" stop-opacity="0.75"/><stop offset="1" stop-color="#FF8A3D" stop-opacity="0.0"/></radialGradient><linearGradient id="lava" x1="0" y1="0" x2="0" y2="1"><stop offset="0" stop-color="#FFD24A"/><stop offset="1" stop-color="#FF5A2D"/></linearGradient><linearGradient id="mudA" x1="0" y1="0" x2="0" y2="1"><stop offset="0" stop-color="#8A5E34"/><stop offset="1" stop-color="#5E3C1E"/></linearGradient><linearGradient id="mudB" x1="0" y1="0" x2="0" y2="1"><stop offset="0" stop-color="#6E4826"/><stop offset="1" stop-color="#432B12"/></linearGradient><linearGradient id="sandwall" x1="0" y1="0" x2="0" y2="1"><stop offset="0" stop-color="#F2C86E"/><stop offset="1" stop-color="#D89A34"/></linearGradient><linearGradient id="cact" x1="0" y1="0" x2="0" y2="1"><stop offset="0" stop-color="#6FB05A"/><stop offset="1" stop-color="#3E7A34"/></linearGradient></defs><rect width="480" height="854" fill="url(#sky)"/><path d="M0,58 Q120,20 240,52 Q360,84 480,40 L480,150 L0,150 Z" fill="url(#hillfar)" opacity="0.55"/><path d="M0,96 Q70,66 132,100 Q190,132 262,104 Q330,78 396,110 Q440,132 480,104 L480,168 Q400,150 330,166 Q250,184 170,164 Q90,146 0,166 Z" fill="url(#mudA)"/><path d="M0,120 Q80,100 150,126 Q220,152 300,128 Q380,104 480,132 L480,168 Q380,150 300,166 Q210,184 130,162 Q60,144 0,160 Z" fill="url(#mudB)" opacity="0.9"/><circle cx="96" cy="128" r="9" fill="#8A5E34" opacity="0.8"/><circle cx="208" cy="140" r="7" fill="#8A5E34" opacity="0.8"/><circle cx="330" cy="126" r="8" fill="#8A5E34" opacity="0.8"/><circle cx="420" cy="142" r="6" fill="#8A5E34" opacity="0.8"/><path d="M0,300 Q140,268 260,300 Q380,332 480,296 L480,600 L0,600 Z" fill="url(#hazeA)" opacity="0.30"/><path d="M0,430 Q160,404 300,432 Q400,452 480,428 L480,620 L0,620 Z" fill="url(#hazeB)" opacity="0.26"/><path d="M0,640 Q120,606 250,638 Q370,668 480,634 L480,854 L0,854 Z" fill="url(#groundA)"/><path d="M0,712 Q140,684 280,714 Q390,738 480,708 L480,854 L0,854 Z" fill="url(#groundB)"/><ellipse cx="110" cy="812" rx="62" ry="16" fill="#5E3C1E" opacity="0.75"/><ellipse cx="102" cy="808" rx="37" ry="8" fill="#8A5E34" opacity="0.55"/><ellipse cx="360" cy="828" rx="70" ry="18" fill="#5E3C1E" opacity="0.75"/><ellipse cx="352" cy="824" rx="42" ry="9" fill="#8A5E34" opacity="0.55"/><ellipse cx="240" cy="850" rx="54" ry="14" fill="#5E3C1E" opacity="0.75"/><ellipse cx="232" cy="846" rx="32" ry="7" fill="#8A5E34" opacity="0.55"/><rect x="126" y="768" width="104" height="15" rx="7" fill="#6E4826" transform="rotate(-6 178 776)"/><ellipse cx="58" cy="760" rx="64.39999999999999" ry="36.8" fill="url(#leaf)"/><ellipse cx="43.05" cy="749.65" rx="32.199999999999996" ry="17.25" fill="url(#leafhi)" opacity="0.9"/><ellipse cx="430" cy="768" rx="67.2" ry="38.4" fill="url(#leaf)"/><ellipse cx="414.4" cy="757.2" rx="33.6" ry="18.0" fill="url(#leafhi)" opacity="0.9"/><path d="M0,90 L44,96 L46,854 L0,854 Z" fill="url(#chuteA)"/><path d="M6,100 Q30,300 14,520 Q2,700 20,854 L0,854 Z" fill="#5E3C1E" opacity="0.5"/><ellipse cx="10" cy="671" rx="12" ry="5" fill="#6E4826" opacity="0.65"/><ellipse cx="12" cy="474" rx="12" ry="4" fill="#6E4826" opacity="0.65"/><ellipse cx="33" cy="680" rx="7" ry="6" fill="#6E4826" opacity="0.65"/><ellipse cx="16" cy="268" rx="10" ry="5" fill="#6E4826" opacity="0.65"/><ellipse cx="34" cy="313" rx="13" ry="4" fill="#6E4826" opacity="0.65"/><ellipse cx="10" cy="569" rx="6" ry="4" fill="#6E4826" opacity="0.65"/><ellipse cx="23" cy="800" rx="7" ry="5" fill="#6E4826" opacity="0.65"/><path d="M0,86 L46,92 L46,104 L0,98 Z" fill="#FFFFFF" opacity="0.30"/><g transform="translate(-10,-8) rotate(54)"><path d="M0,0 Q125.0,-25.0 250,0" stroke="url(#leafhi)" stroke-width="4" fill="none"/><ellipse cx="31.25" cy="-15.414528119500327" rx="18.350628713690867" ry="8.808301782571617" fill="url(#leaf)" transform="rotate(-32 31.25 0)"/><ellipse cx="31.25" cy="15.414528119500327" rx="18.350628713690867" ry="8.808301782571617" fill="url(#leafhi)" transform="rotate(32 31.25 0)"/><ellipse cx="62.5" cy="-25.633863607376245" rx="30.51650429449553" ry="14.647922061357853" fill="url(#leaf)" transform="rotate(-32 62.5 0)"/><ellipse cx="62.5" cy="25.633863607376245" rx="30.51650429449553" ry="14.647922061357853" fill="url(#leafhi)" transform="rotate(32 62.5 0)"/><ellipse cx="93.75" cy="-32.46220527410553" rx="38.64548246917325" ry="18.54983158520316" fill="url(#leaf)" transform="rotate(-32 93.75 0)"/><ellipse cx="93.75" cy="32.46220527410553" rx="38.64548246917325" ry="18.54983158520316" fill="url(#leafhi)" transform="rotate(32 93.75 0)"/><ellipse cx="125.0" cy="-34.86" rx="41.5" ry="19.919999999999998" fill="url(#leaf)" transform="rotate(-32 125.0 0)"/><ellipse cx="125.0" cy="34.86" rx="41.5" ry="19.919999999999998" fill="url(#leafhi)" transform="rotate(32 125.0 0)"/><ellipse cx="156.25" cy="-32.46220527410553" rx="38.64548246917325" ry="18.54983158520316" fill="url(#leaf)" transform="rotate(-32 156.25 0)"/><ellipse cx="156.25" cy="32.46220527410553" rx="38.64548246917325" ry="18.54983158520316" fill="url(#leafhi)" transform="rotate(32 156.25 0)"/><ellipse cx="187.5" cy="-25.633863607376245" rx="30.516504294495533" ry="14.647922061357855" fill="url(#leaf)" transform="rotate(-32 187.5 0)"/><ellipse cx="187.5" cy="25.633863607376245" rx="30.516504294495533" ry="14.647922061357855" fill="url(#leafhi)" transform="rotate(32 187.5 0)"/><ellipse cx="218.75" cy="-15.41452811950033" rx="18.35062871369087" ry="8.808301782571617" fill="url(#leaf)" transform="rotate(-32 218.75 0)"/><ellipse cx="218.75" cy="15.41452811950033" rx="18.35062871369087" ry="8.808301782571617" fill="url(#leafhi)" transform="rotate(32 218.75 0)"/></g><g transform="translate(492,-12) rotate(126)"><path d="M0,0 Q125.0,-25.0 250,0" stroke="url(#leafhi)" stroke-width="4" fill="none"/><ellipse cx="31.25" cy="-15.414528119500327" rx="18.350628713690867" ry="8.808301782571617" fill="url(#leaf)" transform="rotate(-32 31.25 0)"/><ellipse cx="31.25" cy="15.414528119500327" rx="18.350628713690867" ry="8.808301782571617" fill="url(#leafhi)" transform="rotate(32 31.25 0)"/><ellipse cx="62.5" cy="-25.633863607376245" rx="30.51650429449553" ry="14.647922061357853" fill="url(#leaf)" transform="rotate(-32 62.5 0)"/><ellipse cx="62.5" cy="25.633863607376245" rx="30.51650429449553" ry="14.647922061357853" fill="url(#leafhi)" transform="rotate(32 62.5 0)"/><ellipse cx="93.75" cy="-32.46220527410553" rx="38.64548246917325" ry="18.54983158520316" fill="url(#leaf)" transform="rotate(-32 93.75 0)"/><ellipse cx="93.75" cy="32.46220527410553" rx="38.64548246917325" ry="18.54983158520316" fill="url(#leafhi)" transform="rotate(32 93.75 0)"/><ellipse cx="125.0" cy="-34.86" rx="41.5" ry="19.919999999999998" fill="url(#leaf)" transform="rotate(-32 125.0 0)"/><ellipse cx="125.0" cy="34.86" rx="41.5" ry="19.919999999999998" fill="url(#leafhi)" transform="rotate(32 125.0 0)"/><ellipse cx="156.25" cy="-32.46220527410553" rx="38.64548246917325" ry="18.54983158520316" fill="url(#leaf)" transform="rotate(-32 156.25 0)"/><ellipse cx="156.25" cy="32.46220527410553" rx="38.64548246917325" ry="18.54983158520316" fill="url(#leafhi)" transform="rotate(32 156.25 0)"/><ellipse cx="187.5" cy="-25.633863607376245" rx="30.516504294495533" ry="14.647922061357855" fill="url(#leaf)" transform="rotate(-32 187.5 0)"/><ellipse cx="187.5" cy="25.633863607376245" rx="30.516504294495533" ry="14.647922061357855" fill="url(#leafhi)" transform="rotate(32 187.5 0)"/><ellipse cx="218.75" cy="-15.41452811950033" rx="18.35062871369087" ry="8.808301782571617" fill="url(#leaf)" transform="rotate(-32 218.75 0)"/><ellipse cx="218.75" cy="15.41452811950033" rx="18.35062871369087" ry="8.808301782571617" fill="url(#leafhi)" transform="rotate(32 218.75 0)"/></g><g transform="translate(-12,862) rotate(-56)"><path d="M0,0 Q105.0,-21.0 210,0" stroke="url(#leafhi)" stroke-width="4" fill="none"/><ellipse cx="26.25" cy="-13.485803620380272" rx="16.054528119500326" ry="7.706173497360156" fill="url(#leaf)" transform="rotate(-32 26.25 0)"/><ellipse cx="26.25" cy="13.485803620380272" rx="16.054528119500326" ry="7.706173497360156" fill="url(#leafhi)" transform="rotate(32 26.25 0)"/><ellipse cx="52.5" cy="-22.070045430196046" rx="26.273863607376246" ry="12.611454531540597" fill="url(#leaf)" transform="rotate(-32 52.5 0)"/><ellipse cx="52.5" cy="22.070045430196046" rx="26.273863607376246" ry="12.611454531540597" fill="url(#leafhi)" transform="rotate(32 52.5 0)"/><ellipse cx="78.75" cy="-27.805852430248642" rx="33.10220527410553" ry="15.889058531570653" fill="url(#leaf)" transform="rotate(-32 78.75 0)"/><ellipse cx="78.75" cy="27.805852430248642" rx="33.10220527410553" ry="15.889058531570653" fill="url(#leafhi)" transform="rotate(32 78.75 0)"/><ellipse cx="105.0" cy="-29.82" rx="35.5" ry="17.04" fill="url(#leaf)" transform="rotate(-32 105.0 0)"/><ellipse cx="105.0" cy="29.82" rx="35.5" ry="17.04" fill="url(#leafhi)" transform="rotate(32 105.0 0)"/><ellipse cx="131.25" cy="-27.805852430248642" rx="33.10220527410553" ry="15.889058531570653" fill="url(#leaf)" transform="rotate(-32 131.25 0)"/><ellipse cx="131.25" cy="27.805852430248642" rx="33.10220527410553" ry="15.889058531570653" fill="url(#leafhi)" transform="rotate(32 131.25 0)"/><ellipse cx="157.5" cy="-22.07004543019605" rx="26.27386360737625" ry="12.611454531540598" fill="url(#leaf)" transform="rotate(-32 157.5 0)"/><ellipse cx="157.5" cy="22.07004543019605" rx="26.27386360737625" ry="12.611454531540598" fill="url(#leafhi)" transform="rotate(32 157.5 0)"/><ellipse cx="183.75" cy="-13.48580362038028" rx="16.054528119500333" ry="7.706173497360159" fill="url(#leaf)" transform="rotate(-32 183.75 0)"/><ellipse cx="183.75" cy="13.48580362038028" rx="16.054528119500333" ry="7.706173497360159" fill="url(#leafhi)" transform="rotate(32 183.75 0)"/></g><g transform="translate(494,866) rotate(-124)"><path d="M0,0 Q105.0,-21.0 210,0" stroke="url(#leafhi)" stroke-width="4" fill="none"/><ellipse cx="26.25" cy="-13.485803620380272" rx="16.054528119500326" ry="7.706173497360156" fill="url(#leaf)" transform="rotate(-32 26.25 0)"/><ellipse cx="26.25" cy="13.485803620380272" rx="16.054528119500326" ry="7.706173497360156" fill="url(#leafhi)" transform="rotate(32 26.25 0)"/><ellipse cx="52.5" cy="-22.070045430196046" rx="26.273863607376246" ry="12.611454531540597" fill="url(#leaf)" transform="rotate(-32 52.5 0)"/><ellipse cx="52.5" cy="22.070045430196046" rx="26.273863607376246" ry="12.611454531540597" fill="url(#leafhi)" transform="rotate(32 52.5 0)"/><ellipse cx="78.75" cy="-27.805852430248642" rx="33.10220527410553" ry="15.889058531570653" fill="url(#leaf)" transform="rotate(-32 78.75 0)"/><ellipse cx="78.75" cy="27.805852430248642" rx="33.10220527410553" ry="15.889058531570653" fill="url(#leafhi)" transform="rotate(32 78.75 0)"/><ellipse cx="105.0" cy="-29.82" rx="35.5" ry="17.04" fill="url(#leaf)" transform="rotate(-32 105.0 0)"/><ellipse cx="105.0" cy="29.82" rx="35.5" ry="17.04" fill="url(#leafhi)" transform="rotate(32 105.0 0)"/><ellipse cx="131.25" cy="-27.805852430248642" rx="33.10220527410553" ry="15.889058531570653" fill="url(#leaf)" transform="rotate(-32 131.25 0)"/><ellipse cx="131.25" cy="27.805852430248642" rx="33.10220527410553" ry="15.889058531570653" fill="url(#leafhi)" transform="rotate(32 131.25 0)"/><ellipse cx="157.5" cy="-22.07004543019605" rx="26.27386360737625" ry="12.611454531540598" fill="url(#leaf)" transform="rotate(-32 157.5 0)"/><ellipse cx="157.5" cy="22.07004543019605" rx="26.27386360737625" ry="12.611454531540598" fill="url(#leafhi)" transform="rotate(32 157.5 0)"/><ellipse cx="183.75" cy="-13.48580362038028" rx="16.054528119500333" ry="7.706173497360159" fill="url(#leaf)" transform="rotate(-32 183.75 0)"/><ellipse cx="183.75" cy="13.48580362038028" rx="16.054528119500333" ry="7.706173497360159" fill="url(#leafhi)" transform="rotate(32 183.75 0)"/></g><line x1="108.81881250290343" y1="821.7999606025629" x2="104.81881250290343" y2="837.7999606025629" stroke="#CFEAF7" stroke-width="2" opacity="0.29"/><line x1="338.3121229783718" y1="72.74821891534278" x2="334.3121229783718" y2="88.74821891534278" stroke="#CFEAF7" stroke-width="2" opacity="0.34"/><line x1="479.58169879803796" y1="178.82557763313153" x2="475.58169879803796" y2="194.82557763313153" stroke="#CFEAF7" stroke-width="2" opacity="0.47"/><line x1="220.3842061307504" y1="386.975096191974" x2="216.3842061307504" y2="402.975096191974" stroke="#CFEAF7" stroke-width="2" opacity="0.42"/><line x1="92.27080427648744" y1="709.2651676825578" x2="88.27080427648744" y2="725.2651676825578" stroke="#CFEAF7" stroke-width="2" opacity="0.28"/><line x1="112.40782055505858" y1="17.072575515450378" x2="108.40782055505858" y2="33.07257551545038" stroke="#CFEAF7" stroke-width="2" opacity="0.34"/><line x1="195.67865422125942" y1="770.3629125515306" x2="191.67865422125942" y2="786.3629125515306" stroke="#CFEAF7" stroke-width="2" opacity="0.38"/><line x1="54.59084509478396" y1="220.63662695125348" x2="50.59084509478396" y2="236.63662695125348" stroke="#CFEAF7" stroke-width="2" opacity="0.60"/><line x1="30.282566737064887" y1="529.6234394939283" x2="26.282566737064887" y2="545.6234394939283" stroke="#CFEAF7" stroke-width="2" opacity="0.38"/><line x1="317.2047223736796" y1="289.0265534236579" x2="313.2047223736796" y2="305.0265534236579" stroke="#CFEAF7" stroke-width="2" opacity="0.49"/><line x1="238.83865679523458" y1="554.8620461773627" x2="234.83865679523458" y2="570.8620461773627" stroke="#CFEAF7" stroke-width="2" opacity="0.57"/><line x1="279.1375415625311" y1="121.38583408397363" x2="275.1375415625311" y2="137.38583408397363" stroke="#CFEAF7" stroke-width="2" opacity="0.27"/><line x1="454.1046883015567" y1="417.32147301252235" x2="450.1046883015567" y2="433.32147301252235" stroke="#CFEAF7" stroke-width="2" opacity="0.32"/><line x1="454.1012758981438" y1="494.43336486554705" x2="450.1012758981438" y2="510.43336486554705" stroke="#CFEAF7" stroke-width="2" opacity="0.51"/><line x1="422.8606490318903" y1="243.94785861634708" x2="418.8606490318903" y2="259.94785861634705" stroke="#CFEAF7" stroke-width="2" opacity="0.37"/><line x1="421.47672209544163" y1="115.26927559962854" x2="417.47672209544163" y2="131.26927559962854" stroke="#CFEAF7" stroke-width="2" opacity="0.52"/><line x1="46.8559153025436" y1="589.4147940574123" x2="42.8559153025436" y2="605.4147940574123" stroke="#CFEAF7" stroke-width="2" opacity="0.50"/><line x1="455.99987141098904" y1="720.3429930539105" x2="451.99987141098904" y2="736.3429930539105" stroke="#CFEAF7" stroke-width="2" opacity="0.43"/><line x1="94.87111440464722" y1="128.23652750105535" x2="90.87111440464722" y2="144.23652750105535" stroke="#CFEAF7" stroke-width="2" opacity="0.44"/><line x1="244.69959374805515" y1="60.99339056116507" x2="240.69959374805515" y2="76.99339056116507" stroke="#CFEAF7" stroke-width="2" opacity="0.57"/><line x1="243.5602709522185" y1="598.9057390345279" x2="239.5602709522185" y2="614.9057390345279" stroke="#CFEAF7" stroke-width="2" opacity="0.33"/><line x1="117.06541624511787" y1="10.176415745418518" x2="113.06541624511787" y2="26.176415745418517" stroke="#CFEAF7" stroke-width="2" opacity="0.37"/><line x1="128.0843032609948" y1="361.5851857332587" x2="124.0843032609948" y2="377.5851857332587" stroke="#CFEAF7" stroke-width="2" opacity="0.38"/><line x1="400.4717792465538" y1="761.3134294006924" x2="396.4717792465538" y2="777.3134294006924" stroke="#CFEAF7" stroke-width="2" opacity="0.31"/><line x1="190.2066926345666" y1="141.9191318630608" x2="186.2066926345666" y2="157.9191318630608" stroke="#CFEAF7" stroke-width="2" opacity="0.48"/><line x1="467.92585382092005" y1="172.3442529216796" x2="463.92585382092005" y2="188.3442529216796" stroke="#CFEAF7" stroke-width="2" opacity="0.52"/></svg>