<svg xmlns="http://www.w3.org/2000/svg" width="960" height="1708" viewBox="0 0 480 854"><defs><linearGradient id="sky" x1="0" y1="0" x2="0" y2="1"><stop offset="0" stop-color="#E08A2A"/><stop offset="0.36" stop-color="#F0AE44"/><stop offset="0.7" stop-color="#F6D488"/><stop offset="1" stop-color="#FBEDC6"/></linearGradient><linearGradient id="hillfar" x1="0" y1="0" x2="0" y2="1"><stop offset="0" stop-color="#D8A85E"/><stop offset="1" stop-color="#B88A3E"/></linearGradient><linearGradient id="hazeA" x1="0" y1="0" x2="0" y2="1"><stop offset="0" stop-color="#E8C888"/><stop offset="1" stop-color="#C8A056"/></linearGradient><linearGradient id="hazeB" x1="0" y1="0" x2="0" y2="1"><stop offset="0" stop-color="#F0DAA0"/><stop offset="1" stop-color="#D4AE68"/></linearGradient><linearGradient id="groundA" x1="0" y1="0" x2="0" y2="1"><stop offset="0" stop-color="#E0AC50"/><stop offset="1" stop-color="#B8842A"/></linearGradient><linearGradient id="groundB" x1="0" y1="0" x2="0" y2="1"><stop offset="0" stop-color="#C8922E"/><stop offset="1" stop-color="#96681A"/></linearGradient><linearGradient id="leaf" x1="0" y1="0" x2="0" y2="1"><stop offset="0" stop-color="#8A8A3A"/><stop offset="1" stop-color="#5E6022"/></linearGradient><linearGradient id="leafhi" x1="0" y1="0" x2="0" y2="1"><stop offset="0" stop-color="#C8C86A"/><stop offset="1" stop-color="#8A8A3A"/></linearGradient><linearGradient id="chuteA" x1="0" y1="0" x2="0" y2="1"><stop offset="0" stop-color="#D8B45E"/><stop offset="1" stop-color="#A07A32"/></linearGradient><radialGradient id="sundisc" cx="0.5" cy="0.5" r="0.5"><stop offset="0" stop-color="#FFFBE0"/><stop offset="0.6" stop-color="#FFEEA8"/><stop offset="1" stop-color="#FFD98A"/></radialGradient><radialGradient id="sunglow" cx="0.5" cy="0.5" r="0.5"><stop offset="0" stop-color="#FFE9A8" stop-opacity="0.85"/><stop offset="0.5" stop-color="#FFE9A8" stop-opacity="0.35"/><stop offset="1" stop-color="#FFE9A8" stop-opacity="0.0"/></radialGradient><linearGradient id="ray" x1="0" y1="0" x2="0" y2="1"><stop offset="0" stop-color="#FFF6CE" stop-opacity="0.5"/><stop offset="1" stop-color="#FFF6CE" stop-opacity="0.0"/></linearGradient><linearGradient id="rock" x1="0" y1="0" x2="0" y2="1"><stop offset="0" stop-color="#C9AE86"/><stop offset="1" stop-color="#8A6B4A"/></linearGradient><linearGradient id="rockdark" x1="0" y1="0" x2="0" y2="1"><stop offset="0" stop-color="#8A7256"/><stop offset="1" stop-color="#4E3E2C"/></linearGradient><linearGradient id="cliffA" x1="0" y1="0" x2="0" y2="1"><stop offset="0" stop-color="#B49470"/><stop offset="1" stop-color="#7E6448"/></linearGradient><linearGradient id="cliffB" x1="0" y1="0" x2="0" y2="1"><stop offset="0" stop-color="#8E7454"/><stop offset="1" stop-color="#5E4A32"/></linearGradient><linearGradient id="peakA" x1="0" y1="0" x2="0" y2="1"><stop offset="0" stop-color="#CFE0EC"/><stop offset="1" stop-color="#8FB0C8"/></linearGradient><linearGradient id="water" x1="0" y1="0" x2="0" y2="1"><stop offset="0" stop-color="#EAFBFF"/><stop offset="0.35" stop-color="#9FE6F2"/><stop offset="1" stop-color="#37AED2"/></linearGradient><linearGradient id="volc" x1="0" y1="0" x2="0" y2="1"><stop offset="0" stop-color="#6E3A2A"/><stop offset="1" stop-color="#2E1812"/></linearGradient><radialGradient id="lavaglow" cx="0.5" cy="0.5" r="0.5"><stop offset="0" stop-color="#FF8A3D" stop-opacity="0.75"/><stop offset="1" stop-color="#FF8A3D" stop-opacity="0.0"/></radialGradient><linearGradient id="lava" x1="0" y1="0" x2="0" y2="1"><stop offset="0" stop-color="#FFD24A"/><stop offset="1" stop-color="#FF5A2D"/></linearGradient><linearGradient id="mudA" x1="0" y1="0" x2="0" y2="1"><stop offset="0" stop-color="#8A5E34"/><stop offset="1" stop-color="#5E3C1E"/></linearGradient><linearGradient id="mudB" x1="0" y1="0" x2="0" y2="1"><stop offset="0" stop-color="#6E4826"/><stop offset="1" stop-color="#432B12"/></linearGradient><linearGradient id="sandwall" x1="0" y1="0" x2="0" y2="1"><stop offset="0" stop-color="#F2C86E"/><stop offset="1" stop-color="#D89A34"/></linearGradient><linearGradient id="cact" x1="0" y1="0" x2="0" y2="1"><stop offset="0" stop-color="#6FB05A"/><stop offset="1" stop-color="#3E7A34"/></linearGradient></defs><rect width="480" height="854" fill="url(#sky)"/><circle cx="150" cy="70" r="160.0" fill="url(#sunglow)"/><circle cx="150" cy="70" r="50" fill="url(#sundisc)"/><circle cx="150" cy="70" r="28.999999999999996" fill="#FFF3C0"/><g opacity="0.3"><path d="M146.92181871006898,61.542766412926824 L-139.91105758959316,150.61723567131037 L-123.90451488195185,194.59485032409088 L153.07818128993102,78.45723358707318 Z" fill="url(#ray)"/><path d="M140.39261706983774,59.81676901797732 L-93.19128809033651,249.3960908073611 L-43.23289685349272,302.3488919138791 L159.60738293016226,80.18323098202268 Z" fill="url(#ray)"/><path d="M132.55389396927478,62.47448444525602 L-14.18380549163259,325.89849162174784 L76.5359458681385,365.03117250641657 L167.44610603072522,77.52551555474398 Z" fill="url(#ray)"/><path d="M141.0,70.0 L126.6,370.0 L173.4,370.0 L159.0,70.0 Z" fill="url(#ray)"/><path d="M137.14497450367617,75.5451167245482 L235.40086352130504,359.8821355479075 L302.246996102189,331.0475285802569 L162.85502549632383,64.4548832754518 Z" fill="url(#ray)"/><path d="M136.96140888049405,83.82009918988793 L334.31175556119916,311.80474925432867 L402.11242938263007,239.94023346691148 L163.03859111950595,56.17990081011207 Z" fill="url(#ray)"/><path d="M146.92181871006898,78.45723358707318 L423.90451488195185,194.59485032409088 L439.91105758959316,150.61723567131037 L153.07818128993102,61.542766412926824 Z" fill="url(#ray)"/></g><ellipse cx="240" cy="150" rx="330" ry="70" fill="url(#hillfar)" opacity="0.5"/><path d="M480,0 Q380,30 322,86 Q276,132 200,150 Q120,168 0,158 L0,190 L480,190 Z" fill="url(#sandwall)" opacity="0.85"/><path d="M480,20 Q400,52 340,104 Q292,146 214,166 L480,166 Z" fill="#E8C069" opacity="0.6"/><ellipse cx="120" cy="92" rx="66" ry="18" fill="#F7E4A8" opacity="0.4"/><ellipse cx="250" cy="60" rx="50" ry="14" fill="#F7E4A8" opacity="0.4"/><ellipse cx="386" cy="116" rx="58" ry="16" fill="#F7E4A8" opacity="0.4"/><path d="M0,300 Q160,284 320,308 T480,294" stroke="#F7E4A8" stroke-width="3" fill="none" opacity="0.30"/><path d="M0,362 Q160,346 320,370 T480,356" stroke="#F7E4A8" stroke-width="3" fill="none" opacity="0.30"/><path d="M0,424 Q160,408 320,432 T480,418" stroke="#F7E4A8" stroke-width="3" fill="none" opacity="0.30"/><path d="M0,486 Q160,470 320,494 T480,480" stroke="#F7E4A8" stroke-width="3" fill="none" opacity="0.30"/><path d="M0,548 Q160,532 320,556 T480,542" stroke="#F7E4A8" stroke-width="3" fill="none" opacity="0.30"/><ellipse cx="240" cy="470" rx="300" ry="180" fill="url(#hazeA)" opacity="0.28"/><ellipse cx="70" cy="700" rx="240" ry="80" fill="url(#groundA)"/><ellipse cx="410" cy="732" rx="270" ry="92" fill="url(#groundA)"/><ellipse cx="240" cy="812" rx="330" ry="110" fill="url(#groundB)"/><path d="M0,742 Q140,728 280,748 T480,738" stroke="#F7E4A8" stroke-width="3" fill="none" opacity="0.45"/><path d="M0,786 Q140,772 280,792 T480,782" stroke="#F7E4A8" stroke-width="3" fill="none" opacity="0.45"/><path d="M0,830 Q140,816 280,836 T480,826" stroke="#F7E4A8" stroke-width="3" fill="none" opacity="0.45"/><g><rect x="61.45" y="719.5" width="17.099999999999998" height="66.5" rx="8.549999999999999" fill="url(#cact)"/><path d="M61.45,742.3 h-13.299999999999999 a6.6499999999999995,6.6499999999999995 0 0 0 -6.6499999999999995,6.6499999999999995 v11.399999999999999 a6.6499999999999995,6.6499999999999995 0 0 0 13.299999999999999,0 v-5.699999999999999 z" fill="url(#cact)"/><path d="M78.55,734.7 h13.299999999999999 a6.6499999999999995,6.6499999999999995 0 0 1 6.6499999999999995,6.6499999999999995 v15.2 a6.6499999999999995,6.6499999999999995 0 0 1 -13.299999999999999,0 v-9.5 z" fill="url(#cact)"/></g><g><rect x="410.55" y="702.5" width="18.900000000000002" height="73.5" rx="9.450000000000001" fill="url(#cact)"/><path d="M410.55,727.7 h-14.700000000000001 a7.3500000000000005,7.3500000000000005 0 0 0 -7.3500000000000005,7.3500000000000005 v12.600000000000001 a7.3500000000000005,7.3500000000000005 0 0 0 14.700000000000001,0 v-6.300000000000001 z" fill="url(#cact)"/><path d="M429.45,719.3 h14.700000000000001 a7.3500000000000005,7.3500000000000005 0 0 1 7.3500000000000005,7.3500000000000005 v16.8 a7.3500000000000005,7.3500000000000005 0 0 1 -14.700000000000001,0 v-10.5 z" fill="url(#cact)"/></g><g transform="translate(160,828) rotate(0)"><path d="M-16,6.4 L-12.0,-8.8 L-1.6,-16 L11.52,-9.92 L16,5.6 L5.6,12.0 L-8.0,12.8 Z" fill="url(#rock)"/><path d="M-12.0,-8.8 L-1.6,-16 L3.2,-4.8 L-6.4,1.6 Z" fill="#FFFFFF" opacity="0.16"/></g><g transform="translate(330,840) rotate(0)"><path d="M-13,5.2 L-9.75,-7.15 L-1.3,-13 L9.36,-8.06 L13,4.55 L4.55,9.75 L-6.5,10.4 Z" fill="url(#rock)"/><path d="M-9.75,-7.15 L-1.3,-13 L2.6,-3.9 L-5.2,1.3 Z" fill="#FFFFFF" opacity="0.16"/></g><path d="M0,90 L44,96 L46,854 L0,854 Z" fill="url(#chuteA)"/><path d="M2,793.2670035973978 Q24,786.2670035973978 44,796.2670035973978" stroke="#E8CB8A" stroke-width="2.4" fill="none" opacity="0.55"/><path d="M2,659.6100333385189 Q24,652.6100333385189 44,662.6100333385189" stroke="#E8CB8A" stroke-width="2.4" fill="none" opacity="0.55"/><path d="M2,513.0049605742074 Q24,506.0049605742074 44,516.0049605742074" stroke="#E8CB8A" stroke-width="2.4" fill="none" opacity="0.55"/><path d="M2,783.235802572964 Q24,776.235802572964 44,786.235802572964" stroke="#E8CB8A" stroke-width="2.4" fill="none" opacity="0.55"/><path d="M2,813.2807386210615 Q24,806.2807386210615 44,816.2807386210615" stroke="#E8CB8A" stroke-width="2.4" fill="none" opacity="0.55"/><path d="M2,382.70263805017413 Q24,375.70263805017413 44,385.70263805017413" stroke="#E8CB8A" stroke-width="2.4" fill="none" opacity="0.55"/><path d="M2,485.8094073715843 Q24,478.8094073715843 44,488.8094073715843" stroke="#E8CB8A" stroke-width="2.4" fill="none" opacity="0.55"/><path d="M2,197.56880219265918 Q24,190.56880219265918 44,200.56880219265918" stroke="#E8CB8A" stroke-width="2.4" fill="none" opacity="0.55"/><path d="M0,86 L46,92 L46,104 L0,98 Z" fill="#FFFFFF" opacity="0.30"/><g transform="translate(16,-6) rotate(62)"><path d="M0,0 Q71.5,-46.800000000000004 130,-67.60000000000001 Q71.5,-10.4 0,0 Z" fill="url(#leaf)" transform="rotate(-13.0)"/><path d="M0,0 Q71.5,-16.2 130,-23.400000000000002 Q71.5,-3.6 0,0 Z" fill="url(#leaf)" transform="rotate(-4.5)"/><path d="M0,0 Q71.5,16.2 130,23.400000000000002 Q71.5,3.6 0,0 Z" fill="url(#leafhi)" transform="rotate(4.5)"/><path d="M0,0 Q71.5,46.800000000000004 130,67.60000000000001 Q71.5,10.4 0,0 Z" fill="url(#leafhi)" transform="rotate(13.0)"/></g><g transform="translate(464,-10) rotate(118)"><path d="M0,0 Q71.5,-46.800000000000004 130,-67.60000000000001 Q71.5,-10.4 0,0 Z" fill="url(#leaf)" transform="rotate(-13.0)"/><path d="M0,0 Q71.5,-16.2 130,-23.400000000000002 Q71.5,-3.6 0,0 Z" fill="url(#leaf)" transform="rotate(-4.5)"/><path d="M0,0 Q71.5,16.2 130,23.400000000000002 Q71.5,3.6 0,0 Z" fill="url(#leafhi)" transform="rotate(4.5)"/><path d="M0,0 Q71.5,46.800000000000004 130,67.60000000000001 Q71.5,10.4 0,0 Z" fill="url(#leafhi)" transform="rotate(13.0)"/></g><g transform="translate(-8,40) rotate(34)"><path d="M0,0 Q60.50000000000001,-46.800000000000004 110,-67.60000000000001 Q60.50000000000001,-10.4 0,0 Z" fill="url(#leaf)" transform="rotate(-13.0)"/><path d="M0,0 Q60.50000000000001,-16.2 110,-23.400000000000002 Q60.50000000000001,-3.6 0,0 Z" fill="url(#leaf)" transform="rotate(-4.5)"/><path d="M0,0 Q60.50000000000001,16.2 110,23.400000000000002 Q60.50000000000001,3.6 0,0 Z" fill="url(#leafhi)" transform="rotate(4.5)"/><path d="M0,0 Q60.50000000000001,46.800000000000004 110,67.60000000000001 Q60.50000000000001,10.4 0,0 Z" fill="url(#leafhi)" transform="rotate(13.0)"/></g><g transform="translate(488,46) rotate(146)"><path d="M0,0 Q60.50000000000001,-46.800000000000004 110,-67.60000000000001 Q60.50000000000001,-10.4 0,0 Z" fill="url(#leaf)" transform="rotate(-13.0)"/><path d="M0,0 Q60.50000000000001,-16.2 110,-23.400000000000002 Q60.50000000000001,-3.6 0,0 Z" fill="url(#leaf)" transform="rotate(-4.5)"/><path d="M0,0 Q60.50000000000001,16.2 110,23.400000000000002 Q60.50000000000001,3.6 0,0 Z" fill="url(#leafhi)" transform="rotate(4.5)"/><path d="M0,0 Q60.50000000000001,46.800000000000004 110,67.60000000000001 Q60.50000000000001,10.4 0,0 Z" fill="url(#leafhi)" transform="rotate(13.0)"/></g><ellipse cx="114.22302100410786" cy="464.7717584027429" rx="9.1" ry="1.8" fill="#F3DCA0" opacity="0.31"/><ellipse cx="31.453852435110292" cy="11.245464787862513" rx="14.2" ry="1.4" fill="#F3DCA0" opacity="0.21"/><ellipse cx="477.90952104502213" cy="401.6050354241705" rx="14.2" ry="1.7" fill="#F3DCA0" opacity="0.31"/><ellipse cx="72.29588353129148" cy="542.1710021755509" rx="14.5" ry="1.7" fill="#F3DCA0" opacity="0.34"/><ellipse cx="322.27750817740446" cy="54.6828482458557" rx="13.3" ry="1.8" fill="#F3DCA0" opacity="0.23"/><ellipse cx="14.885640705479997" cy="739.1602603800195" rx="10.2" ry="2.0" fill="#F3DCA0" opacity="0.37"/><ellipse cx="342.7821521333772" cy="786.6182621166288" rx="9.3" ry="2.1" fill="#F3DCA0" opacity="0.26"/><ellipse cx="449.0816264181701" cy="750.5521279286876" rx="6.1" ry="1.2" fill="#F3DCA0" opacity="0.20"/><ellipse cx="463.4304666711374" cy="372.4822340998246" rx="11.9" ry="1.4" fill="#F3DCA0" opacity="0.28"/><ellipse cx="185.21580424555322" cy="299.67755740973377" rx="11.4" ry="1.8" fill="#F3DCA0" opacity="0.38"/><ellipse cx="327.351425584784" cy="793.3195434248146" rx="14.4" ry="2.4" fill="#F3DCA0" opacity="0.32"/><ellipse cx="78.28781854611348" cy="734.9844532812931" rx="15.6" ry="2.3" fill="#F3DCA0" opacity="0.29"/><ellipse cx="342.63216968361564" cy="180.30073605896095" rx="14.1" ry="1.8" fill="#F3DCA0" opacity="0.22"/><ellipse cx="30.461077029710086" cy="729.2668851129689" rx="15.9" ry="1.1" fill="#F3DCA0" opacity="0.35"/><ellipse cx="197.02167712603625" cy="128.75362978269936" rx="8.2" ry="2.1" fill="#F3DCA0" opacity="0.37"/><ellipse cx="21.211229342180822" cy="524.8107793661645" rx="5.5" ry="2.0" fill="#F3DCA0" opacity="0.23"/><ellipse cx="422.83454747873185" cy="837.462936344212" rx="10.6" ry="2.4" fill="#F3DCA0" opacity="0.23"/><ellipse cx="36.94593825859771" cy="512.197438712297" rx="5.3" ry="1.3" fill="#F3DCA0" opacity="0.25"/><ellipse cx="293.02421902432394" cy="133.39393832558426" rx="5.5" ry="2.2" fill="#F3DCA0" opacity="0.23"/><ellipse cx="460.15652467605844" cy="765.7473337791718" rx="9.2" ry="1.6" fill="#F3DCA0" opacity="0.28"/><ellipse cx="309.0665848261089" cy="508.6853035952828" rx="11.2" ry="1.9" fill="#F3DCA0" opacity="0.39"/><ellipse cx="243.3728716539167" cy="368.23758663001655" rx="12.9" ry="1.3" fill="#F3DCA0" opacity="0.23"/><ellipse cx="469.34271189534496" cy="445.0427084621499" rx="11.0" ry="1.0" fill="#F3DCA0" opacity="0.25"/><ellipse cx="278.3833026225915" cy="17.125168320127834" rx="11.8" ry="1.9" fill="#F3DCA0" opacity="0.17"/><ellipse cx="301.12373232525886" cy="398.17786696098847" rx="12.5" ry="1.5" fill="#F3DCA0" opacity="0.33"/><ellipse cx="354.25645884097645" cy="18.943828518151644" rx="5.7" ry="1.9" fill="#F3DCA0" opacity="0.39"/></svg>