<svg xmlns="http://www.w3.org/2000/svg" width="960" height="1708" viewBox="0 0 480 854"><defs><linearGradient id="sky" x1="0" y1="0" x2="0" y2="1"><stop offset="0" stop-color="#3A1E30"/><stop offset="0.34" stop-color="#8E3A34"/><stop offset="0.66" stop-color="#D9622E"/><stop offset="1" stop-color="#F2A03E"/></linearGradient><linearGradient id="hillfar" x1="0" y1="0" x2="0" y2="1"><stop offset="0" stop-color="#5E2A22"/><stop offset="1" stop-color="#3A1A16"/></linearGradient><linearGradient id="hazeA" x1="0" y1="0" x2="0" y2="1"><stop offset="0" stop-color="#8E4030"/><stop offset="1" stop-color="#5A241A"/></linearGradient><linearGradient id="hazeB" x1="0" y1="0" x2="0" y2="1"><stop offset="0" stop-color="#B0543A"/><stop offset="1" stop-color="#7A3020"/></linearGradient><linearGradient id="groundA" x1="0" y1="0" x2="0" y2="1"><stop offset="0" stop-color="#3A241C"/><stop offset="1" stop-color="#241412"/></linearGradient><linearGradient id="groundB" x1="0" y1="0" x2="0" y2="1"><stop offset="0" stop-color="#241412"/><stop offset="1" stop-color="#140A0A"/></linearGradient><linearGradient id="leaf" x1="0" y1="0" x2="0" y2="1"><stop offset="0" stop-color="#3A241C"/><stop offset="1" stop-color="#1E1210"/></linearGradient><linearGradient id="leafhi" x1="0" y1="0" x2="0" y2="1"><stop offset="0" stop-color="#6E4432"/><stop offset="1" stop-color="#3A241C"/></linearGradient><linearGradient id="chuteA" x1="0" y1="0" x2="0" y2="1"><stop offset="0" stop-color="#5A342A"/><stop offset="1" stop-color="#2A1812"/></linearGradient><radialGradient id="sundisc" cx="0.5" cy="0.5" r="0.5"><stop offset="0" stop-color="#FFFBE0"/><stop offset="0.6" stop-color="#FFEEA8"/><stop offset="1" stop-color="#FFD98A"/></radialGradient><radialGradient id="sunglow" cx="0.5" cy="0.5" r="0.5"><stop offset="0" stop-color="#FFE9A8" stop-opacity="0.85"/><stop offset="0.5" stop-color="#FFE9A8" stop-opacity="0.35"/><stop offset="1" stop-color="#FFE9A8" stop-opacity="0.0"/></radialGradient><linearGradient id="ray" x1="0" y1="0" x2="0" y2="1"><stop offset="0" stop-color="#FFF6CE" stop-opacity="0.5"/><stop offset="1" stop-color="#FFF6CE" stop-opacity="0.0"/></linearGradient><linearGradient id="rock" x1="0" y1="0" x2="0" y2="1"><stop offset="0" stop-color="#C9AE86"/><stop offset="1" stop-color="#8A6B4A"/></linearGradient><linearGradient id="rockdark" x1="0" y1="0" x2="0" y2="1"><stop offset="0" stop-color="#8A7256"/><stop offset="1" stop-color="#4E3E2C"/></linearGradient><linearGradient id="cliffA" x1="0" y1="0" x2="0" y2="1"><stop offset="0" stop-color="#B49470"/><stop offset="1" stop-color="#7E6448"/></linearGradient><linearGradient id="cliffB" x1="0" y1="0" x2="0" y2="1"><stop offset="0" stop-color="#8E7454"/><stop offset="1" stop-color="#5E4A32"/></linearGradient><linearGradient id="peakA" x1="0" y1="0" x2="0" y2="1"><stop offset="0" stop-color="#CFE0EC"/><stop offset="1" stop-color="#8FB0C8"/></linearGradient><linearGradient id="water" x1="0" y1="0" x2="0" y2="1"><stop offset="0" stop-color="#EAFBFF"/><stop offset="0.35" stop-color="#9FE6F2"/><stop offset="1" stop-color="#37AED2"/></linearGradient><linearGradient id="volc" x1="0" y1="0" x2="0" y2="1"><stop offset="0" stop-color="#6E3A2A"/><stop offset="1" stop-color="#2E1812"/></linearGradient><radialGradient id="lavaglow" cx="0.5" cy="0.5" r="0.5"><stop offset="0" stop-color="#FF8A3D" stop-opacity="0.75"/><stop offset="1" stop-color="#FF8A3D" stop-opacity="0.0"/></radialGradient><linearGradient id="lava" x1="0" y1="0" x2="0" y2="1"><stop offset="0" stop-color="#FFD24A"/><stop offset="1" stop-color="#FF5A2D"/></linearGradient><linearGradient id="mudA" x1="0" y1="0" x2="0" y2="1"><stop offset="0" stop-color="#8A5E34"/><stop offset="1" stop-color="#5E3C1E"/></linearGradient><linearGradient id="mudB" x1="0" y1="0" x2="0" y2="1"><stop offset="0" stop-color="#6E4826"/><stop offset="1" stop-color="#432B12"/></linearGradient><linearGradient id="sandwall" x1="0" y1="0" x2="0" y2="1"><stop offset="0" stop-color="#F2C86E"/><stop offset="1" stop-color="#D89A34"/></linearGradient><linearGradient id="cact" x1="0" y1="0" x2="0" y2="1"><stop offset="0" stop-color="#6FB05A"/><stop offset="1" stop-color="#3E7A34"/></linearGradient></defs><rect width="480" height="854" fill="url(#sky)"/><path d="M0,88 L88,44 L150,90 L240,30 L330,92 L410,52 L480,96 L480,150 L0,150 Z" fill="url(#hillfar)" opacity="0.65"/><path d="M116,176 L196,58 L286,58 L366,176 Z" fill="url(#volc)"/><path d="M196,58 L286,58 L300,86 L182,86 Z" fill="#FF5A2D"/><ellipse cx="241" cy="60" rx="52" ry="13" fill="#FFD24A"/><ellipse cx="241" cy="60" rx="34" ry="8" fill="#FFF3C0"/><ellipse cx="241" cy="58" rx="96" ry="34" fill="url(#lavaglow)"/><path d="M214,84 Q206,130 220,178" stroke="url(#lava)" stroke-width="9" fill="none"/><path d="M268,84 Q280,128 266,178" stroke="url(#lava)" stroke-width="6" fill="none"/><g opacity="0.5"><ellipse cx="241" cy="26" rx="51.0" ry="25.5" fill="#6E5A52"/><circle cx="217.0" cy="20.0" r="19.5" fill="#6E5A52"/><circle cx="247.0" cy="9.5" r="24.0" fill="#6E5A52"/><circle cx="274.0" cy="21.5" r="18.0" fill="#6E5A52"/></g><g opacity="0.4"><ellipse cx="300" cy="18" rx="34.0" ry="17.0" fill="#6E5A52"/><circle cx="284.0" cy="14.0" r="13.0" fill="#6E5A52"/><circle cx="304.0" cy="7.0" r="16.0" fill="#6E5A52"/><circle cx="322.0" cy="15.0" r="12.0" fill="#6E5A52"/></g><g opacity="0.4"><ellipse cx="180" cy="20" rx="37.400000000000006" ry="18.700000000000003" fill="#6E5A52"/><circle cx="162.4" cy="15.6" r="14.3" fill="#6E5A52"/><circle cx="184.4" cy="7.899999999999999" r="17.6" fill="#6E5A52"/><circle cx="204.2" cy="16.7" r="13.200000000000001" fill="#6E5A52"/></g><path d="M0,320 L120,296 L280,326 L480,300 L480,620 L0,620 Z" fill="url(#hazeA)" opacity="0.32"/><ellipse cx="240" cy="470" rx="260" ry="150" fill="url(#lavaglow)" opacity="0.22"/><path d="M0,652 L120,624 L260,656 L390,628 L480,654 L480,854 L0,854 Z" fill="url(#groundA)"/><path d="M0,730 L150,704 L310,734 L480,708 L480,854 L0,854 Z" fill="url(#groundB)"/><path d="M60,800 q27,-9 50,4 q27,10 90,-3" stroke="url(#lava)" stroke-width="4" fill="none" opacity="0.9"/><path d="M300,822 q36,-9 66,4 q36,10 120,-3" stroke="url(#lava)" stroke-width="4" fill="none" opacity="0.9"/><path d="M180,846 q24,-9 44,4 q24,10 80,-3" stroke="url(#lava)" stroke-width="4" fill="none" opacity="0.9"/><path d="M410,790 q21,-9 38,4 q21,10 70,-3" stroke="url(#lava)" stroke-width="4" fill="none" opacity="0.9"/><g transform="translate(96,776) rotate(15)"><path d="M-26,10.4 L-19.5,-14.3 L-2.6,-26 L18.72,-16.12 L26,9.1 L9.1,19.5 L-13.0,20.8 Z" fill="url(#rockdark)"/><path d="M-19.5,-14.3 L-2.6,-26 L5.2,-7.8 L-10.4,2.6 Z" fill="#FFFFFF" opacity="0.16"/></g><g transform="translate(368,772) rotate(60)"><path d="M-30,12.0 L-22.5,-16.5 L-3.0,-30 L21.599999999999998,-18.6 L30,10.5 L10.5,22.5 L-15.0,24.0 Z" fill="url(#rockdark)"/><path d="M-22.5,-16.5 L-3.0,-30 L6.0,-9.0 L-12.0,3.0 Z" fill="#FFFFFF" opacity="0.16"/></g><g transform="translate(240,840) rotate(30)"><path d="M-22,8.8 L-16.5,-12.100000000000001 L-2.2,-22 L15.84,-13.64 L22,7.699999999999999 L7.699999999999999,16.5 L-11.0,17.6 Z" fill="url(#rockdark)"/><path d="M-16.5,-12.100000000000001 L-2.2,-22 L4.4,-6.6 L-8.8,2.2 Z" fill="#FFFFFF" opacity="0.16"/></g><path d="M0,90 L44,96 L46,854 L0,854 Z" fill="url(#chuteA)"/><rect x="10" y="241" width="13" height="20" rx="2" fill="#3A241C" opacity="0.55"/><rect x="4" y="424" width="12" height="30" rx="2" fill="#3A241C" opacity="0.55"/><rect x="23" y="361" width="12" height="20" rx="2" fill="#3A241C" opacity="0.55"/><rect x="22" y="721" width="13" height="31" rx="2" fill="#3A241C" opacity="0.55"/><rect x="6" y="696" width="12" height="19" rx="2" fill="#3A241C" opacity="0.55"/><rect x="33" y="631" width="9" height="32" rx="2" fill="#3A241C" opacity="0.55"/><rect x="14" y="787" width="12" height="20" rx="2" fill="#3A241C" opacity="0.55"/><rect x="3" y="628" width="13" height="23" rx="2" fill="#3A241C" opacity="0.55"/><rect x="4" y="112" width="11" height="20" rx="2" fill="#3A241C" opacity="0.55"/><rect x="21" y="779" width="13" height="30" rx="2" fill="#3A241C" opacity="0.55"/><rect x="26" y="545" width="11" height="24" rx="2" fill="#3A241C" opacity="0.55"/><path d="M0,86 L46,92 L46,104 L0,98 Z" fill="#FFFFFF" opacity="0.30"/><path d="M0,0 L120,0 C96,40 50,58 0,64 Z" fill="#2A1812"/><path d="M480,0 L364,0 C388,42 434,62 480,70 Z" fill="#2A1812"/><path d="M0,180 q40,-26 76,-6 q-30,10 -46,30 q30,-8 58,6" stroke="#3A241C" stroke-width="6" fill="none"/><path d="M480,200 q-44,-28 -82,-6 q32,10 50,32 q-32,-8 -62,6" stroke="#3A241C" stroke-width="6" fill="none"/><circle cx="113.30308307396857" cy="88.1037932330313" r="2.2" fill="#FFB03A" opacity="0.49"/><circle cx="31.927245926203156" cy="342.9587263702539" r="3.2" fill="#FFB03A" opacity="0.84"/><circle cx="367.2780492026105" cy="189.52666203953126" r="2.5" fill="#FFB03A" opacity="0.55"/><circle cx="82.87897405697707" cy="90.68053173652673" r="1.8" fill="#FFB03A" opacity="0.91"/><circle cx="397.8816234136413" cy="688.8811040837842" r="3.0" fill="#FFB03A" opacity="0.51"/><circle cx="148.72797950377708" cy="535.4371644608132" r="2.9" fill="#FFB03A" opacity="0.87"/><circle cx="422.4243606533757" cy="74.05738775022324" r="2.6" fill="#FFB03A" opacity="0.77"/><circle cx="242.85781234099937" cy="151.83280880162994" r="2.3" fill="#FFB03A" opacity="0.45"/><circle cx="448.6024146719559" cy="739.1234813380611" r="2.5" fill="#FFB03A" opacity="0.57"/><circle cx="436.2577389190495" cy="488.80124863975135" r="3.2" fill="#FFB03A" opacity="0.87"/><circle cx="244.01874015972078" cy="353.50992083449916" r="2.6" fill="#FFB03A" opacity="0.64"/><circle cx="77.43389093837207" cy="260.5653033535591" r="3.0" fill="#FFB03A" opacity="0.42"/><circle cx="22.234559521686066" cy="534.9035366910775" r="2.0" fill="#FFB03A" opacity="0.69"/><circle cx="226.19524133519664" cy="292.78814867052125" r="3.4" fill="#FFB03A" opacity="0.51"/><circle cx="198.14143507551603" cy="173.08070621122647" r="2.7" fill="#FFB03A" opacity="0.55"/><circle cx="170.79876221152898" cy="637.8890495658551" r="2.0" fill="#FFB03A" opacity="0.71"/><circle cx="434.0712487347157" cy="86.23644066505203" r="1.5" fill="#FFB03A" opacity="0.53"/><circle cx="367.2778758366124" cy="525.5789921599073" r="1.9" fill="#FFB03A" opacity="0.58"/><circle cx="85.21905287834734" cy="392.0020143533302" r="1.5" fill="#FFB03A" opacity="0.78"/><circle cx="430.0453339736749" cy="815.3459089843627" r="2.9" fill="#FFB03A" opacity="0.93"/><circle cx="8.730012140787586" cy="246.8029835873201" r="3.3" fill="#FFB03A" opacity="0.83"/><circle cx="197.00528691306025" cy="805.585345719446" r="2.6" fill="#FFB03A" opacity="0.85"/><circle cx="140.83692175530064" cy="163.46858490666335" r="2.3" fill="#FFB03A" opacity="0.48"/><circle cx="183.18462466767903" cy="821.3888335354967" r="2.1" fill="#FFB03A" opacity="0.41"/><circle cx="21.50265260262012" cy="144.81025542224168" r="3.0" fill="#FFB03A" opacity="0.60"/><circle cx="139.360433476409" cy="82.92529007185291" r="3.4" fill="#FFB03A" opacity="0.63"/></svg>