<svg xmlns="http://www.w3.org/2000/svg" width="960" height="1708" viewBox="0 0 480 854"><defs><linearGradient id="sky" x1="0" y1="0" x2="0" y2="1"><stop offset="0" stop-color="#1E9ED8"/><stop offset="0.4" stop-color="#5EC6E6"/><stop offset="0.74" stop-color="#AEE4EE"/><stop offset="1" stop-color="#DFF6E4"/></linearGradient><linearGradient id="hillfar" x1="0" y1="0" x2="0" y2="1"><stop offset="0" stop-color="#4EA88E"/><stop offset="1" stop-color="#2E7E68"/></linearGradient><linearGradient id="hazeA" x1="0" y1="0" x2="0" y2="1"><stop offset="0" stop-color="#6EBE96"/><stop offset="1" stop-color="#3E8E6E"/></linearGradient><linearGradient id="hazeB" x1="0" y1="0" x2="0" y2="1"><stop offset="0" stop-color="#8ED2A8"/><stop offset="1" stop-color="#56A47E"/></linearGradient><linearGradient id="groundA" x1="0" y1="0" x2="0" y2="1"><stop offset="0" stop-color="#3FA028"/><stop offset="1" stop-color="#2A7018"/></linearGradient><linearGradient id="groundB" x1="0" y1="0" x2="0" y2="1"><stop offset="0" stop-color="#2E8018"/><stop offset="1" stop-color="#1C5810"/></linearGradient><linearGradient id="leaf" x1="0" y1="0" x2="0" y2="1"><stop offset="0" stop-color="#2E7A1A"/><stop offset="1" stop-color="#164A10"/></linearGradient><linearGradient id="leafhi" x1="0" y1="0" x2="0" y2="1"><stop offset="0" stop-color="#9BEA52"/><stop offset="1" stop-color="#2E8A1E"/></linearGradient><linearGradient id="chuteA" x1="0" y1="0" x2="0" y2="1"><stop offset="0" stop-color="#5E8A4E"/><stop offset="1" stop-color="#38602E"/></linearGradient><radialGradient id="sundisc" cx="0.5" cy="0.5" r="0.5"><stop offset="0" stop-color="#FFFBE0"/><stop offset="0.6" stop-color="#FFEEA8"/><stop offset="1" stop-color="#FFD98A"/></radialGradient><radialGradient id="sunglow" cx="0.5" cy="0.5" r="0.5"><stop offset="0" stop-color="#FFE9A8" stop-opacity="0.85"/><stop offset="0.5" stop-color="#FFE9A8" stop-opacity="0.35"/><stop offset="1" stop-color="#FFE9A8" stop-opacity="0.0"/></radialGradient><linearGradient id="ray" x1="0" y1="0" x2="0" y2="1"><stop offset="0" stop-color="#FFF6CE" stop-opacity="0.5"/><stop offset="1" stop-color="#FFF6CE" stop-opacity="0.0"/></linearGradient><linearGradient id="rock" x1="0" y1="0" x2="0" y2="1"><stop offset="0" stop-color="#C9AE86"/><stop offset="1" stop-color="#8A6B4A"/></linearGradient><linearGradient id="rockdark" x1="0" y1="0" x2="0" y2="1"><stop offset="0" stop-color="#8A7256"/><stop offset="1" stop-color="#4E3E2C"/></linearGradient><linearGradient id="cliffA" x1="0" y1="0" x2="0" y2="1"><stop offset="0" stop-color="#B49470"/><stop offset="1" stop-color="#7E6448"/></linearGradient><linearGradient id="cliffB" x1="0" y1="0" x2="0" y2="1"><stop offset="0" stop-color="#8E7454"/><stop offset="1" stop-color="#5E4A32"/></linearGradient><linearGradient id="peakA" x1="0" y1="0" x2="0" y2="1"><stop offset="0" stop-color="#CFE0EC"/><stop offset="1" stop-color="#8FB0C8"/></linearGradient><linearGradient id="water" x1="0" y1="0" x2="0" y2="1"><stop offset="0" stop-color="#EAFBFF"/><stop offset="0.35" stop-color="#9FE6F2"/><stop offset="1" stop-color="#37AED2"/></linearGradient><linearGradient id="volc" x1="0" y1="0" x2="0" y2="1"><stop offset="0" stop-color="#6E3A2A"/><stop offset="1" stop-color="#2E1812"/></linearGradient><radialGradient id="lavaglow" cx="0.5" cy="0.5" r="0.5"><stop offset="0" stop-color="#FF8A3D" stop-opacity="0.75"/><stop offset="1" stop-color="#FF8A3D" stop-opacity="0.0"/></radialGradient><linearGradient id="lava" x1="0" y1="0" x2="0" y2="1"><stop offset="0" stop-color="#FFD24A"/><stop offset="1" stop-color="#FF5A2D"/></linearGradient><linearGradient id="mudA" x1="0" y1="0" x2="0" y2="1"><stop offset="0" stop-color="#8A5E34"/><stop offset="1" stop-color="#5E3C1E"/></linearGradient><linearGradient id="mudB" x1="0" y1="0" x2="0" y2="1"><stop offset="0" stop-color="#6E4826"/><stop offset="1" stop-color="#432B12"/></linearGradient><linearGradient id="sandwall" x1="0" y1="0" x2="0" y2="1"><stop offset="0" stop-color="#F2C86E"/><stop offset="1" stop-color="#D89A34"/></linearGradient><linearGradient id="cact" x1="0" y1="0" x2="0" y2="1"><stop offset="0" stop-color="#6FB05A"/><stop offset="1" stop-color="#3E7A34"/></linearGradient></defs><rect width="480" height="854" fill="url(#sky)"/><circle cx="392" cy="58" r="134.4" fill="url(#sunglow)"/><circle cx="392" cy="58" r="42" fill="url(#sundisc)"/><circle cx="392" cy="58" r="24.36" fill="#FFF3C0"/><g opacity="0.3"><path d="M388.921818710069,49.542766412926824 L102.08894241040684,138.61723567131037 L118.09548511804815,182.59485032409088 L395.078181289931,66.45723358707318 Z" fill="url(#ray)"/><path d="M382.39261706983774,47.81676901797732 L148.8087119096635,237.3960908073611 L198.76710314650728,290.3488919138791 L401.60738293016226,68.18323098202268 Z" fill="url(#ray)"/><path d="M374.5538939692748,50.47448444525602 L227.8161945083674,313.89849162174784 L318.53594586813847,353.03117250641657 L409.4461060307252,65.52551555474398 Z" fill="url(#ray)"/><path d="M383.0,58.0 L368.6,358.0 L415.4,358.0 L401.0,58.0 Z" fill="url(#ray)"/><path d="M379.14497450367617,63.545116724548194 L477.40086352130504,347.8821355479075 L544.246996102189,319.0475285802569 L404.85502549632383,52.454883275451806 Z" fill="url(#ray)"/><path d="M378.96140888049405,71.82009918988793 L576.3117555611992,299.80474925432867 L644.11242938263,227.94023346691148 L405.03859111950595,44.17990081011207 Z" fill="url(#ray)"/><path d="M388.921818710069,66.45723358707318 L665.9045148819519,182.59485032409088 L681.9110575895932,138.61723567131037 L395.078181289931,49.542766412926824 Z" fill="url(#ray)"/></g><path d="M0,64 Q110,28 232,60 Q350,92 480,50 L480,150 L0,150 Z" fill="url(#hillfar)" opacity="0.6"/><path d="M0,72 L128,54 L166,190 L0,190 Z" fill="url(#cliffA)"/><path d="M480,80 L340,58 L306,190 L480,190 Z" fill="url(#cliffA)"/><path d="M166,74 L306,74 L300,190 L172,190 Z" fill="url(#water)"/><path d="M188,76 Q191,130 186,190" stroke="#FFFFFF" stroke-width="2.5" fill="none" opacity="0.55"/><path d="M214,76 Q217,130 212,190" stroke="#FFFFFF" stroke-width="2.5" fill="none" opacity="0.55"/><path d="M240,76 Q243,130 238,190" stroke="#FFFFFF" stroke-width="2.5" fill="none" opacity="0.55"/><path d="M266,76 Q269,130 264,190" stroke="#FFFFFF" stroke-width="2.5" fill="none" opacity="0.55"/><path d="M288,76 Q291,130 286,190" stroke="#FFFFFF" stroke-width="2.5" fill="none" opacity="0.55"/><ellipse cx="236" cy="70" rx="76" ry="12" fill="#EAFBFF"/><g opacity="0.85"><ellipse cx="70" cy="40" rx="27.200000000000003" ry="13.600000000000001" fill="#FFFFFF"/><circle cx="57.2" cy="36.8" r="10.4" fill="#FFFFFF"/><circle cx="73.2" cy="31.2" r="12.8" fill="#FFFFFF"/><circle cx="87.6" cy="37.6" r="9.600000000000001" fill="#FFFFFF"/></g><g opacity="0.8"><ellipse cx="410" cy="32" rx="23.799999999999997" ry="11.899999999999999" fill="#FFFFFF"/><circle cx="398.8" cy="29.2" r="9.1" fill="#FFFFFF"/><circle cx="412.8" cy="24.3" r="11.2" fill="#FFFFFF"/><circle cx="425.4" cy="29.9" r="8.399999999999999" fill="#FFFFFF"/></g><path d="M96,190 A146,146 0 0 1 388,190" stroke="#FF8A8A" stroke-width="4" fill="none" opacity="0.30" transform="translate(0,0)"/><path d="M96,190 A146,146 0 0 1 386,190" stroke="#FFC96B" stroke-width="4" fill="none" opacity="0.30" transform="translate(0,5)"/><path d="M96,190 A146,146 0 0 1 384,190" stroke="#FFF48A" stroke-width="4" fill="none" opacity="0.30" transform="translate(0,10)"/><path d="M96,190 A146,146 0 0 1 382,190" stroke="#8FE39A" stroke-width="4" fill="none" opacity="0.30" transform="translate(0,15)"/><path d="M96,190 A146,146 0 0 1 380,190" stroke="#8FC9F2" stroke-width="4" fill="none" opacity="0.30" transform="translate(0,20)"/><path d="M96,190 A146,146 0 0 1 378,190" stroke="#B79BE6" stroke-width="4" fill="none" opacity="0.30" transform="translate(0,25)"/><path d="M0,300 Q140,272 280,302 Q390,326 480,296 L480,620 L0,620 Z" fill="url(#hazeA)" opacity="0.28"/><ellipse cx="240" cy="520" rx="220" ry="120" fill="#FFFFFF" opacity="0.16"/><path d="M0,636 Q120,602 250,634 Q370,664 480,630 L480,854 L0,854 Z" fill="url(#groundA)"/><path d="M0,708 Q140,680 280,710 Q390,734 480,704 L480,854 L0,854 Z" fill="url(#groundB)"/><ellipse cx="240" cy="800" rx="180" ry="46" fill="url(#water)" opacity="0.95"/><ellipse cx="240" cy="792" rx="130" ry="28" fill="#FFFFFF" opacity="0.35"/><g transform="translate(84,790) rotate(0)"><path d="M-24,9.600000000000001 L-18.0,-13.200000000000001 L-2.4000000000000004,-24 L17.28,-14.879999999999999 L24,8.399999999999999 L8.399999999999999,18.0 L-12.0,19.200000000000003 Z" fill="url(#rock)"/><path d="M-18.0,-13.200000000000001 L-2.4000000000000004,-24 L4.800000000000001,-7.199999999999999 L-9.600000000000001,2.4000000000000004 Z" fill="#FFFFFF" opacity="0.16"/></g><g transform="translate(398,796) rotate(0)"><path d="M-26,10.4 L-19.5,-14.3 L-2.6,-26 L18.72,-16.12 L26,9.1 L9.1,19.5 L-13.0,20.8 Z" fill="url(#rock)"/><path d="M-19.5,-14.3 L-2.6,-26 L5.2,-7.8 L-10.4,2.6 Z" fill="#FFFFFF" opacity="0.16"/></g><g transform="translate(150,828) rotate(0)"><path d="M-16,6.4 L-12.0,-8.8 L-1.6,-16 L11.52,-9.92 L16,5.6 L5.6,12.0 L-8.0,12.8 Z" fill="url(#rock)"/><path d="M-12.0,-8.8 L-1.6,-16 L3.2,-4.8 L-6.4,1.6 Z" fill="#FFFFFF" opacity="0.16"/></g><g transform="translate(330,834) rotate(0)"><path d="M-18,7.2 L-13.5,-9.9 L-1.8,-18 L12.959999999999999,-11.16 L18,6.3 L6.3,13.5 L-9.0,14.4 Z" fill="url(#rock)"/><path d="M-13.5,-9.9 L-1.8,-18 L3.6,-5.3999999999999995 L-7.2,1.8 Z" fill="#FFFFFF" opacity="0.16"/></g><ellipse cx="40" cy="748" rx="64.39999999999999" ry="36.8" fill="url(#leaf)"/><ellipse cx="25.05" cy="737.65" rx="32.199999999999996" ry="17.25" fill="url(#leafhi)" opacity="0.9"/><ellipse cx="444" cy="754" rx="67.2" ry="38.4" fill="url(#leaf)"/><ellipse cx="428.4" cy="743.2" rx="33.6" ry="18.0" fill="url(#leafhi)" opacity="0.9"/><path d="M0,90 L44,96 L46,854 L0,854 Z" fill="url(#chuteA)"/><ellipse cx="38" cy="235" rx="12" ry="6" fill="#4E9E3E" opacity="0.5"/><ellipse cx="9" cy="779" rx="14" ry="6" fill="#4E9E3E" opacity="0.5"/><ellipse cx="32" cy="665" rx="14" ry="8" fill="#4E9E3E" opacity="0.5"/><ellipse cx="13" cy="369" rx="16" ry="5" fill="#4E9E3E" opacity="0.5"/><ellipse cx="32" cy="563" rx="15" ry="6" fill="#4E9E3E" opacity="0.5"/><ellipse cx="30" cy="324" rx="14" ry="4" fill="#4E9E3E" opacity="0.5"/><ellipse cx="18" cy="670" rx="10" ry="7" fill="#4E9E3E" opacity="0.5"/><ellipse cx="25" cy="131" rx="15" ry="6" fill="#4E9E3E" opacity="0.5"/><path d="M0,86 L46,92 L46,104 L0,98 Z" fill="#FFFFFF" opacity="0.30"/><g transform="translate(-10,-8) rotate(52)"><path d="M0,0 Q135.0,-27.0 270,0" stroke="url(#leafhi)" stroke-width="4" fill="none"/><ellipse cx="33.75" cy="-16.37889036906035" rx="19.498679010786134" ry="9.359365925177343" fill="url(#leaf)" transform="rotate(-32 33.75 0)"/><ellipse cx="33.75" cy="16.37889036906035" rx="19.498679010786134" ry="9.359365925177343" fill="url(#leafhi)" transform="rotate(32 33.75 0)"/><ellipse cx="67.5" cy="-27.415772695966343" rx="32.63782463805517" ry="15.666155826266483" fill="url(#leaf)" transform="rotate(-32 67.5 0)"/><ellipse cx="67.5" cy="27.415772695966343" rx="32.63782463805517" ry="15.666155826266483" fill="url(#leafhi)" transform="rotate(32 67.5 0)"/><ellipse cx="101.25" cy="-34.79038169603397" rx="41.41712106670711" ry="19.880218112019413" fill="url(#leaf)" transform="rotate(-32 101.25 0)"/><ellipse cx="101.25" cy="34.79038169603397" rx="41.41712106670711" ry="19.880218112019413" fill="url(#leafhi)" transform="rotate(32 101.25 0)"/><ellipse cx="135.0" cy="-37.379999999999995" rx="44.5" ry="21.36" fill="url(#leaf)" transform="rotate(-32 135.0 0)"/><ellipse cx="135.0" cy="37.379999999999995" rx="44.5" ry="21.36" fill="url(#leafhi)" transform="rotate(32 135.0 0)"/><ellipse cx="168.75" cy="-34.79038169603397" rx="41.41712106670711" ry="19.880218112019413" fill="url(#leaf)" transform="rotate(-32 168.75 0)"/><ellipse cx="168.75" cy="34.79038169603397" rx="41.41712106670711" ry="19.880218112019413" fill="url(#leafhi)" transform="rotate(32 168.75 0)"/><ellipse cx="202.5" cy="-27.41577269596635" rx="32.63782463805518" ry="15.666155826266484" fill="url(#leaf)" transform="rotate(-32 202.5 0)"/><ellipse cx="202.5" cy="27.41577269596635" rx="32.63782463805518" ry="15.666155826266484" fill="url(#leafhi)" transform="rotate(32 202.5 0)"/><ellipse cx="236.25" cy="-16.378890369060358" rx="19.49867901078614" ry="9.359365925177347" fill="url(#leaf)" transform="rotate(-32 236.25 0)"/><ellipse cx="236.25" cy="16.378890369060358" rx="19.49867901078614" ry="9.359365925177347" fill="url(#leafhi)" transform="rotate(32 236.25 0)"/></g><g transform="translate(492,-12) rotate(128)"><path d="M0,0 Q135.0,-27.0 270,0" stroke="url(#leafhi)" stroke-width="4" fill="none"/><ellipse cx="33.75" cy="-16.37889036906035" rx="19.498679010786134" ry="9.359365925177343" fill="url(#leaf)" transform="rotate(-32 33.75 0)"/><ellipse cx="33.75" cy="16.37889036906035" rx="19.498679010786134" ry="9.359365925177343" fill="url(#leafhi)" transform="rotate(32 33.75 0)"/><ellipse cx="67.5" cy="-27.415772695966343" rx="32.63782463805517" ry="15.666155826266483" fill="url(#leaf)" transform="rotate(-32 67.5 0)"/><ellipse cx="67.5" cy="27.415772695966343" rx="32.63782463805517" ry="15.666155826266483" fill="url(#leafhi)" transform="rotate(32 67.5 0)"/><ellipse cx="101.25" cy="-34.79038169603397" rx="41.41712106670711" ry="19.880218112019413" fill="url(#leaf)" transform="rotate(-32 101.25 0)"/><ellipse cx="101.25" cy="34.79038169603397" rx="41.41712106670711" ry="19.880218112019413" fill="url(#leafhi)" transform="rotate(32 101.25 0)"/><ellipse cx="135.0" cy="-37.379999999999995" rx="44.5" ry="21.36" fill="url(#leaf)" transform="rotate(-32 135.0 0)"/><ellipse cx="135.0" cy="37.379999999999995" rx="44.5" ry="21.36" fill="url(#leafhi)" transform="rotate(32 135.0 0)"/><ellipse cx="168.75" cy="-34.79038169603397" rx="41.41712106670711" ry="19.880218112019413" fill="url(#leaf)" transform="rotate(-32 168.75 0)"/><ellipse cx="168.75" cy="34.79038169603397" rx="41.41712106670711" ry="19.880218112019413" fill="url(#leafhi)" transform="rotate(32 168.75 0)"/><ellipse cx="202.5" cy="-27.41577269596635" rx="32.63782463805518" ry="15.666155826266484" fill="url(#leaf)" transform="rotate(-32 202.5 0)"/><ellipse cx="202.5" cy="27.41577269596635" rx="32.63782463805518" ry="15.666155826266484" fill="url(#leafhi)" transform="rotate(32 202.5 0)"/><ellipse cx="236.25" cy="-16.378890369060358" rx="19.49867901078614" ry="9.359365925177347" fill="url(#leaf)" transform="rotate(-32 236.25 0)"/><ellipse cx="236.25" cy="16.378890369060358" rx="19.49867901078614" ry="9.359365925177347" fill="url(#leafhi)" transform="rotate(32 236.25 0)"/></g><g transform="translate(-14,300) rotate(20)"><path d="M0,0 Q75.0,-15.0 150,0" stroke="url(#leafhi)" stroke-width="4" fill="none"/><ellipse cx="18.75" cy="-10.592716871700198" rx="12.61037722821452" ry="6.0529810695429695" fill="url(#leaf)" transform="rotate(-32 18.75 0)"/><ellipse cx="18.75" cy="10.592716871700198" rx="12.61037722821452" ry="6.0529810695429695" fill="url(#leafhi)" transform="rotate(32 18.75 0)"/><ellipse cx="37.5" cy="-16.72431816442575" rx="19.90990257669732" ry="9.556753236814712" fill="url(#leaf)" transform="rotate(-32 37.5 0)"/><ellipse cx="37.5" cy="16.72431816442575" rx="19.90990257669732" ry="9.556753236814712" fill="url(#leafhi)" transform="rotate(32 37.5 0)"/><ellipse cx="56.25" cy="-20.82132316446332" rx="24.78728948150395" ry="11.897898951121896" fill="url(#leaf)" transform="rotate(-32 56.25 0)"/><ellipse cx="56.25" cy="20.82132316446332" rx="24.78728948150395" ry="11.897898951121896" fill="url(#leafhi)" transform="rotate(32 56.25 0)"/><ellipse cx="75.0" cy="-22.259999999999998" rx="26.5" ry="12.719999999999999" fill="url(#leaf)" transform="rotate(-32 75.0 0)"/><ellipse cx="75.0" cy="22.259999999999998" rx="26.5" ry="12.719999999999999" fill="url(#leafhi)" transform="rotate(32 75.0 0)"/><ellipse cx="93.75" cy="-20.82132316446332" rx="24.78728948150395" ry="11.897898951121896" fill="url(#leaf)" transform="rotate(-32 93.75 0)"/><ellipse cx="93.75" cy="20.82132316446332" rx="24.78728948150395" ry="11.897898951121896" fill="url(#leafhi)" transform="rotate(32 93.75 0)"/><ellipse cx="112.5" cy="-16.72431816442575" rx="19.90990257669732" ry="9.556753236814712" fill="url(#leaf)" transform="rotate(-32 112.5 0)"/><ellipse cx="112.5" cy="16.72431816442575" rx="19.90990257669732" ry="9.556753236814712" fill="url(#leafhi)" transform="rotate(32 112.5 0)"/><ellipse cx="131.25" cy="-10.5927168717002" rx="12.610377228214523" ry="6.05298106954297" fill="url(#leaf)" transform="rotate(-32 131.25 0)"/><ellipse cx="131.25" cy="10.5927168717002" rx="12.610377228214523" ry="6.05298106954297" fill="url(#leafhi)" transform="rotate(32 131.25 0)"/></g><g transform="translate(496,320) rotate(160)"><path d="M0,0 Q75.0,-15.0 150,0" stroke="url(#leafhi)" stroke-width="4" fill="none"/><ellipse cx="18.75" cy="-10.592716871700198" rx="12.61037722821452" ry="6.0529810695429695" fill="url(#leaf)" transform="rotate(-32 18.75 0)"/><ellipse cx="18.75" cy="10.592716871700198" rx="12.61037722821452" ry="6.0529810695429695" fill="url(#leafhi)" transform="rotate(32 18.75 0)"/><ellipse cx="37.5" cy="-16.72431816442575" rx="19.90990257669732" ry="9.556753236814712" fill="url(#leaf)" transform="rotate(-32 37.5 0)"/><ellipse cx="37.5" cy="16.72431816442575" rx="19.90990257669732" ry="9.556753236814712" fill="url(#leafhi)" transform="rotate(32 37.5 0)"/><ellipse cx="56.25" cy="-20.82132316446332" rx="24.78728948150395" ry="11.897898951121896" fill="url(#leaf)" transform="rotate(-32 56.25 0)"/><ellipse cx="56.25" cy="20.82132316446332" rx="24.78728948150395" ry="11.897898951121896" fill="url(#leafhi)" transform="rotate(32 56.25 0)"/><ellipse cx="75.0" cy="-22.259999999999998" rx="26.5" ry="12.719999999999999" fill="url(#leaf)" transform="rotate(-32 75.0 0)"/><ellipse cx="75.0" cy="22.259999999999998" rx="26.5" ry="12.719999999999999" fill="url(#leafhi)" transform="rotate(32 75.0 0)"/><ellipse cx="93.75" cy="-20.82132316446332" rx="24.78728948150395" ry="11.897898951121896" fill="url(#leaf)" transform="rotate(-32 93.75 0)"/><ellipse cx="93.75" cy="20.82132316446332" rx="24.78728948150395" ry="11.897898951121896" fill="url(#leafhi)" transform="rotate(32 93.75 0)"/><ellipse cx="112.5" cy="-16.72431816442575" rx="19.90990257669732" ry="9.556753236814712" fill="url(#leaf)" transform="rotate(-32 112.5 0)"/><ellipse cx="112.5" cy="16.72431816442575" rx="19.90990257669732" ry="9.556753236814712" fill="url(#leafhi)" transform="rotate(32 112.5 0)"/><ellipse cx="131.25" cy="-10.5927168717002" rx="12.610377228214523" ry="6.05298106954297" fill="url(#leaf)" transform="rotate(-32 131.25 0)"/><ellipse cx="131.25" cy="10.5927168717002" rx="12.610377228214523" ry="6.05298106954297" fill="url(#leafhi)" transform="rotate(32 131.25 0)"/></g><g transform="translate(-12,866) rotate(-54)"><path d="M0,0 Q110.0,-22.0 220,0" stroke="url(#leafhi)" stroke-width="4" fill="none"/><ellipse cx="27.5" cy="-13.967984745160289" rx="16.628553268047963" ry="7.981705568663021" fill="url(#leaf)" transform="rotate(-32 27.5 0)"/><ellipse cx="27.5" cy="13.967984745160289" rx="16.628553268047963" ry="7.981705568663021" fill="url(#leafhi)" transform="rotate(32 27.5 0)"/><ellipse cx="55.0" cy="-22.960999974491095" rx="27.334523779156065" ry="13.120571413994911" fill="url(#leaf)" transform="rotate(-32 55.0 0)"/><ellipse cx="55.0" cy="22.960999974491095" rx="27.334523779156065" ry="13.120571413994911" fill="url(#leafhi)" transform="rotate(32 55.0 0)"/><ellipse cx="82.5" cy="-28.969940641212865" rx="34.48802457287246" ry="16.554251794978782" fill="url(#leaf)" transform="rotate(-32 82.5 0)"/><ellipse cx="82.5" cy="28.969940641212865" rx="34.48802457287246" ry="16.554251794978782" fill="url(#leafhi)" transform="rotate(32 82.5 0)"/><ellipse cx="110.0" cy="-31.08" rx="37.0" ry="17.759999999999998" fill="url(#leaf)" transform="rotate(-32 110.0 0)"/><ellipse cx="110.0" cy="31.08" rx="37.0" ry="17.759999999999998" fill="url(#leafhi)" transform="rotate(32 110.0 0)"/><ellipse cx="137.5" cy="-28.969940641212865" rx="34.48802457287246" ry="16.554251794978782" fill="url(#leaf)" transform="rotate(-32 137.5 0)"/><ellipse cx="137.5" cy="28.969940641212865" rx="34.48802457287246" ry="16.554251794978782" fill="url(#leafhi)" transform="rotate(32 137.5 0)"/><ellipse cx="165.0" cy="-22.960999974491095" rx="27.33452377915607" ry="13.120571413994913" fill="url(#leaf)" transform="rotate(-32 165.0 0)"/><ellipse cx="165.0" cy="22.960999974491095" rx="27.33452377915607" ry="13.120571413994913" fill="url(#leafhi)" transform="rotate(32 165.0 0)"/><ellipse cx="192.5" cy="-13.96798474516029" rx="16.628553268047966" ry="7.981705568663023" fill="url(#leaf)" transform="rotate(-32 192.5 0)"/><ellipse cx="192.5" cy="13.96798474516029" rx="16.628553268047966" ry="7.981705568663023" fill="url(#leafhi)" transform="rotate(32 192.5 0)"/></g><g transform="translate(494,870) rotate(-126)"><path d="M0,0 Q110.0,-22.0 220,0" stroke="url(#leafhi)" stroke-width="4" fill="none"/><ellipse cx="27.5" cy="-13.967984745160289" rx="16.628553268047963" ry="7.981705568663021" fill="url(#leaf)" transform="rotate(-32 27.5 0)"/><ellipse cx="27.5" cy="13.967984745160289" rx="16.628553268047963" ry="7.981705568663021" fill="url(#leafhi)" transform="rotate(32 27.5 0)"/><ellipse cx="55.0" cy="-22.960999974491095" rx="27.334523779156065" ry="13.120571413994911" fill="url(#leaf)" transform="rotate(-32 55.0 0)"/><ellipse cx="55.0" cy="22.960999974491095" rx="27.334523779156065" ry="13.120571413994911" fill="url(#leafhi)" transform="rotate(32 55.0 0)"/><ellipse cx="82.5" cy="-28.969940641212865" rx="34.48802457287246" ry="16.554251794978782" fill="url(#leaf)" transform="rotate(-32 82.5 0)"/><ellipse cx="82.5" cy="28.969940641212865" rx="34.48802457287246" ry="16.554251794978782" fill="url(#leafhi)" transform="rotate(32 82.5 0)"/><ellipse cx="110.0" cy="-31.08" rx="37.0" ry="17.759999999999998" fill="url(#leaf)" transform="rotate(-32 110.0 0)"/><ellipse cx="110.0" cy="31.08" rx="37.0" ry="17.759999999999998" fill="url(#leafhi)" transform="rotate(32 110.0 0)"/><ellipse cx="137.5" cy="-28.969940641212865" rx="34.48802457287246" ry="16.554251794978782" fill="url(#leaf)" transform="rotate(-32 137.5 0)"/><ellipse cx="137.5" cy="28.969940641212865" rx="34.48802457287246" ry="16.554251794978782" fill="url(#leafhi)" transform="rotate(32 137.5 0)"/><ellipse cx="165.0" cy="-22.960999974491095" rx="27.33452377915607" ry="13.120571413994913" fill="url(#leaf)" transform="rotate(-32 165.0 0)"/><ellipse cx="165.0" cy="22.960999974491095" rx="27.33452377915607" ry="13.120571413994913" fill="url(#leafhi)" transform="rotate(32 165.0 0)"/><ellipse cx="192.5" cy="-13.96798474516029" rx="16.628553268047966" ry="7.981705568663023" fill="url(#leaf)" transform="rotate(-32 192.5 0)"/><ellipse cx="192.5" cy="13.96798474516029" rx="16.628553268047966" ry="7.981705568663023" fill="url(#leafhi)" transform="rotate(32 192.5 0)"/></g><circle cx="155.43972711991793" cy="128.82519453152463" r="2.8" fill="#EAFBFF" opacity="0.28"/><circle cx="257.2233620672108" cy="312.29833504334806" r="1.5" fill="#EAFBFF" opacity="0.48"/><circle cx="17.997916052152743" cy="370.33341384767755" r="1.6" fill="#EAFBFF" opacity="0.29"/><circle cx="203.7692107884067" cy="706.1317144699206" r="1.7" fill="#EAFBFF" opacity="0.35"/><circle cx="301.1679467546829" cy="809.3434368582829" r="2.7" fill="#EAFBFF" opacity="0.43"/><circle cx="468.60245068460165" cy="39.781609247563864" r="3.3" fill="#EAFBFF" opacity="0.38"/><circle cx="69.24244001157001" cy="100.59457131892658" r="2.1" fill="#EAFBFF" opacity="0.62"/><circle cx="86.74866236348998" cy="496.6865397677462" r="2.8" fill="#EAFBFF" opacity="0.42"/><circle cx="262.91734354058775" cy="53.62178462721796" r="1.5" fill="#EAFBFF" opacity="0.34"/><circle cx="326.59198712725725" cy="365.16382904167006" r="2.1" fill="#EAFBFF" opacity="0.51"/><circle cx="217.52850065797216" cy="256.00101532158476" r="3.1" fill="#EAFBFF" opacity="0.56"/><circle cx="117.16632514663338" cy="490.55784856090503" r="2.6" fill="#EAFBFF" opacity="0.64"/><circle cx="350.13373893082445" cy="245.8988512162193" r="3.6" fill="#EAFBFF" opacity="0.30"/><circle cx="200.69895445690906" cy="646.5983538487229" r="1.7" fill="#EAFBFF" opacity="0.47"/><circle cx="18.819483382770077" cy="570.6563414803735" r="3.1" fill="#EAFBFF" opacity="0.51"/><circle cx="420.22934967882634" cy="267.94037597227464" r="2.9" fill="#EAFBFF" opacity="0.52"/><circle cx="278.34969805559626" cy="389.59935293140677" r="3.2" fill="#EAFBFF" opacity="0.68"/><circle cx="227.56720196142933" cy="567.185983475372" r="1.5" fill="#EAFBFF" opacity="0.57"/><circle cx="310.621850173281" cy="848.1039323045055" r="3.2" fill="#EAFBFF" opacity="0.38"/><circle cx="185.1798923744212" cy="571.0294193650967" r="1.4" fill="#EAFBFF" opacity="0.46"/><circle cx="80.66322187514139" cy="99.99980848739905" r="1.5" fill="#EAFBFF" opacity="0.60"/><circle cx="62.083306568968425" cy="211.4630679771648" r="2.3" fill="#EAFBFF" opacity="0.64"/><circle cx="38.67902457606654" cy="383.60604041072867" r="2.6" fill="#EAFBFF" opacity="0.65"/><circle cx="393.2543221611558" cy="737.842737122532" r="2.0" fill="#EAFBFF" opacity="0.44"/><circle cx="172.2101593591799" cy="755.1006744272773" r="3.5" fill="#EAFBFF" opacity="0.32"/><circle cx="84.58450967537775" cy="198.09116426388354" r="1.9" fill="#EAFBFF" opacity="0.47"/></svg>